<svg xmlns="http://www.w3.org/2000/svg" xmlns:xlink="http://www.w3.org/1999/xlink" contentStyleType="text/css" height="816px" preserveAspectRatio="none" style="width:3519px;height:816px;background:#FFFFFF;" version="1.1" viewBox="0 0 3519 816" width="3519px" zoomAndPan="magnify"><defs/><g><!--class App--><g id="elem_App"><rect codeLine="3" fill="#F1F1F1" height="48" id="App" rx="2.5" ry="2.5" style="stroke:#181818;stroke-width:0.5;" width="59" x="50.5" y="227.01"/><ellipse cx="65.5" cy="243.01" fill="#ADD1B2" rx="11" ry="11" style="stroke:#181818;stroke-width:1.0;"/><path d="M68.4688,248.6506 Q67.8906,248.9475 67.25,249.0881 Q66.6094,249.2444 65.9063,249.2444 Q63.4063,249.2444 62.0781,247.6038 Q60.7656,245.9475 60.7656,242.8225 Q60.7656,239.6975 62.0781,238.0413 Q63.4063,236.385 65.9063,236.385 Q66.6094,236.385 67.25,236.5413 Q67.9063,236.6975 68.4688,236.9944 L68.4688,239.7131 Q67.8438,239.135 67.25,238.8694 Q66.6563,238.5881 66.0313,238.5881 Q64.6875,238.5881 64,239.6663 Q63.3125,240.7288 63.3125,242.8225 Q63.3125,244.9163 64,245.9944 Q64.6875,247.0569 66.0313,247.0569 Q66.6563,247.0569 67.25,246.7913 Q67.8438,246.51 68.4688,245.9319 L68.4688,248.6506 Z " fill="#000000"/><text fill="#000000" font-family="sans-serif" font-size="14" lengthAdjust="spacing" textLength="27" x="79.5" y="247.8567">App</text><line style="stroke:#181818;stroke-width:0.5;" x1="51.5" x2="108.5" y1="259.01" y2="259.01"/><line style="stroke:#181818;stroke-width:0.5;" x1="51.5" x2="108.5" y1="267.01" y2="267.01"/></g><!--class Application--><g id="elem_Application"><rect codeLine="6" fill="#F1F1F1" height="64.2969" id="Application" rx="2.5" ry="2.5" style="stroke:#181818;stroke-width:0.5;" width="146" x="7" y="604.61"/><ellipse cx="39.55" cy="620.61" fill="#ADD1B2" rx="11" ry="11" style="stroke:#181818;stroke-width:1.0;"/><path d="M42.5188,626.2506 Q41.9406,626.5475 41.3,626.6881 Q40.6594,626.8444 39.9563,626.8444 Q37.4563,626.8444 36.1281,625.2038 Q34.8156,623.5475 34.8156,620.4225 Q34.8156,617.2975 36.1281,615.6413 Q37.4563,613.985 39.9563,613.985 Q40.6594,613.985 41.3,614.1413 Q41.9563,614.2975 42.5188,614.5944 L42.5188,617.3131 Q41.8938,616.735 41.3,616.4694 Q40.7063,616.1881 40.0813,616.1881 Q38.7375,616.1881 38.05,617.2663 Q37.3625,618.3288 37.3625,620.4225 Q37.3625,622.5163 38.05,623.5944 Q38.7375,624.6569 40.0813,624.6569 Q40.7063,624.6569 41.3,624.3913 Q41.8938,624.11 42.5188,623.5319 L42.5188,626.2506 Z " fill="#000000"/><text fill="#000000" font-family="sans-serif" font-size="14" lengthAdjust="spacing" textLength="75" x="57.45" y="625.4567">Application</text><line style="stroke:#181818;stroke-width:0.5;" x1="8" x2="152" y1="636.61" y2="636.61"/><ellipse cx="18" cy="650.2584" fill="none" rx="3" ry="3" style="stroke:#038048;stroke-width:1.0;"/><text fill="#000000" font-family="sans-serif" font-size="14" lengthAdjust="spacing" textLength="120" x="27" y="653.6051">DispatcherObject</text><line style="stroke:#181818;stroke-width:0.5;" x1="8" x2="152" y1="660.9069" y2="660.9069"/></g><!--class Exception--><g id="elem_Exception"><rect codeLine="10" fill="#F1F1F1" height="64.2969" id="Exception" rx="2.5" ry="2.5" style="stroke:#181818;stroke-width:0.5;" width="100" x="602" y="218.86"/><ellipse cx="617" cy="234.86" fill="#ADD1B2" rx="11" ry="11" style="stroke:#181818;stroke-width:1.0;"/><path d="M619.9688,240.5006 Q619.3906,240.7975 618.75,240.9381 Q618.1094,241.0944 617.4063,241.0944 Q614.9063,241.0944 613.5781,239.4538 Q612.2656,237.7975 612.2656,234.6725 Q612.2656,231.5475 613.5781,229.8913 Q614.9063,228.235 617.4063,228.235 Q618.1094,228.235 618.75,228.3913 Q619.4063,228.5475 619.9688,228.8444 L619.9688,231.5631 Q619.3438,230.985 618.75,230.7194 Q618.1563,230.4381 617.5313,230.4381 Q616.1875,230.4381 615.5,231.5163 Q614.8125,232.5788 614.8125,234.6725 Q614.8125,236.7663 615.5,237.8444 Q616.1875,238.9069 617.5313,238.9069 Q618.1563,238.9069 618.75,238.6413 Q619.3438,238.36 619.9688,237.7819 L619.9688,240.5006 Z " fill="#000000"/><text fill="#000000" font-family="sans-serif" font-size="14" lengthAdjust="spacing" textLength="68" x="631" y="239.7067">Exception</text><line style="stroke:#181818;stroke-width:0.5;" x1="603" x2="701" y1="250.86" y2="250.86"/><text fill="#000000" font-family="sans-serif" font-size="14" lengthAdjust="spacing" textLength="80" x="608" y="267.8551">ISerializable</text><line style="stroke:#181818;stroke-width:0.5;" x1="603" x2="701" y1="275.1569" y2="275.1569"/></g><!--class FunctionException--><g id="elem_FunctionException"><rect codeLine="14" fill="#F1F1F1" height="96.8906" id="FunctionException" rx="2.5" ry="2.5" style="stroke:#181818;stroke-width:0.5;" width="454" x="188" y="588.31"/><ellipse cx="346.75" cy="604.31" fill="#ADD1B2" rx="11" ry="11" style="stroke:#181818;stroke-width:1.0;"/><path d="M349.7188,609.9506 Q349.1406,610.2475 348.5,610.3881 Q347.8594,610.5444 347.1563,610.5444 Q344.6563,610.5444 343.3281,608.9038 Q342.0156,607.2475 342.0156,604.1225 Q342.0156,600.9975 343.3281,599.3413 Q344.6563,597.685 347.1563,597.685 Q347.8594,597.685 348.5,597.8413 Q349.1563,597.9975 349.7188,598.2944 L349.7188,601.0131 Q349.0938,600.435 348.5,600.1694 Q347.9063,599.8881 347.2813,599.8881 Q345.9375,599.8881 345.25,600.9663 Q344.5625,602.0288 344.5625,604.1225 Q344.5625,606.2163 345.25,607.2944 Q345.9375,608.3569 347.2813,608.3569 Q347.9063,608.3569 348.5,608.0913 Q349.0938,607.81 349.7188,607.2319 L349.7188,609.9506 Z " fill="#000000"/><text fill="#000000" font-family="sans-serif" font-size="14" lengthAdjust="spacing" textLength="128" x="367.25" y="609.1567">FunctionException</text><line style="stroke:#181818;stroke-width:0.5;" x1="189" x2="641" y1="620.31" y2="620.31"/><line style="stroke:#181818;stroke-width:0.5;" x1="189" x2="641" y1="628.31" y2="628.31"/><ellipse cx="199" cy="641.9584" fill="#84BE84" rx="3" ry="3" style="stroke:#038048;stroke-width:1.0;"/><text fill="#000000" font-family="sans-serif" font-size="14" lengthAdjust="spacing" textLength="138" x="208" y="645.3051">FunctionException()</text><ellipse cx="199" cy="658.2553" fill="#84BE84" rx="3" ry="3" style="stroke:#038048;stroke-width:1.0;"/><text fill="#000000" font-family="sans-serif" font-size="14" lengthAdjust="spacing" textLength="245" x="208" y="661.602">FunctionException(string message)</text><ellipse cx="199" cy="674.5522" fill="#84BE84" rx="3" ry="3" style="stroke:#038048;stroke-width:1.0;"/><text fill="#000000" font-family="sans-serif" font-size="14" lengthAdjust="spacing" textLength="428" x="208" y="677.8989">FunctionException(string message, Exception innerException)</text></g><!--class NanException--><g id="elem_NanException"><rect codeLine="20" fill="#F1F1F1" height="96.8906" id="NanException" rx="2.5" ry="2.5" style="stroke:#181818;stroke-width:0.5;" width="421" x="677.5" y="588.31"/><ellipse cx="836.25" cy="604.31" fill="#ADD1B2" rx="11" ry="11" style="stroke:#181818;stroke-width:1.0;"/><path d="M839.2188,609.9506 Q838.6406,610.2475 838,610.3881 Q837.3594,610.5444 836.6563,610.5444 Q834.1563,610.5444 832.8281,608.9038 Q831.5156,607.2475 831.5156,604.1225 Q831.5156,600.9975 832.8281,599.3413 Q834.1563,597.685 836.6563,597.685 Q837.3594,597.685 838,597.8413 Q838.6563,597.9975 839.2188,598.2944 L839.2188,601.0131 Q838.5938,600.435 838,600.1694 Q837.4063,599.8881 836.7813,599.8881 Q835.4375,599.8881 834.75,600.9663 Q834.0625,602.0288 834.0625,604.1225 Q834.0625,606.2163 834.75,607.2944 Q835.4375,608.3569 836.7813,608.3569 Q837.4063,608.3569 838,608.0913 Q838.5938,607.81 839.2188,607.2319 L839.2188,609.9506 Z " fill="#000000"/><text fill="#000000" font-family="sans-serif" font-size="14" lengthAdjust="spacing" textLength="95" x="856.75" y="609.1567">NanException</text><line style="stroke:#181818;stroke-width:0.5;" x1="678.5" x2="1097.5" y1="620.31" y2="620.31"/><line style="stroke:#181818;stroke-width:0.5;" x1="678.5" x2="1097.5" y1="628.31" y2="628.31"/><ellipse cx="688.5" cy="641.9584" fill="#84BE84" rx="3" ry="3" style="stroke:#038048;stroke-width:1.0;"/><text fill="#000000" font-family="sans-serif" font-size="14" lengthAdjust="spacing" textLength="105" x="697.5" y="645.3051">NanException()</text><ellipse cx="688.5" cy="658.2553" fill="#84BE84" rx="3" ry="3" style="stroke:#038048;stroke-width:1.0;"/><text fill="#000000" font-family="sans-serif" font-size="14" lengthAdjust="spacing" textLength="212" x="697.5" y="661.602">NanException(string message)</text><ellipse cx="688.5" cy="674.5522" fill="#84BE84" rx="3" ry="3" style="stroke:#038048;stroke-width:1.0;"/><text fill="#000000" font-family="sans-serif" font-size="14" lengthAdjust="spacing" textLength="395" x="697.5" y="677.8989">NanException(string message, Exception innerException)</text></g><!--class IntegralSolver--><g id="elem_IntegralSolver"><rect codeLine="26" fill="#F1F1F1" height="129.4844" id="IntegralSolver" rx="2.5" ry="2.5" style="stroke:#181818;stroke-width:0.5;" width="649" x="1497.5" y="572.02"/><ellipse cx="1771.25" cy="588.02" fill="#ADD1B2" rx="11" ry="11" style="stroke:#181818;stroke-width:1.0;"/><path d="M1774.2188,593.6606 Q1773.6406,593.9575 1773,594.0981 Q1772.3594,594.2544 1771.6563,594.2544 Q1769.1563,594.2544 1767.8281,592.6138 Q1766.5156,590.9575 1766.5156,587.8325 Q1766.5156,584.7075 1767.8281,583.0513 Q1769.1563,581.395 1771.6563,581.395 Q1772.3594,581.395 1773,581.5513 Q1773.6563,581.7075 1774.2188,582.0044 L1774.2188,584.7231 Q1773.5938,584.145 1773,583.8794 Q1772.4063,583.5981 1771.7813,583.5981 Q1770.4375,583.5981 1769.75,584.6763 Q1769.0625,585.7388 1769.0625,587.8325 Q1769.0625,589.9263 1769.75,591.0044 Q1770.4375,592.0669 1771.7813,592.0669 Q1772.4063,592.0669 1773,591.8013 Q1773.5938,591.52 1774.2188,590.9419 L1774.2188,593.6606 Z " fill="#000000"/><text fill="#000000" font-family="sans-serif" font-size="14" lengthAdjust="spacing" textLength="93" x="1791.75" y="592.8667">IntegralSolver</text><line style="stroke:#181818;stroke-width:0.5;" x1="1498.5" x2="2145.5" y1="604.02" y2="604.02"/><ellipse cx="1508.5" cy="617.6684" fill="none" rx="3" ry="3" style="stroke:#038048;stroke-width:1.0;"/><text fill="#000000" font-family="sans-serif" font-size="14" lengthAdjust="spacing" textLength="141" x="1517.5" y="621.0151">static ulong Difficulty</text><ellipse cx="1508.5" cy="633.9653" fill="none" rx="3" ry="3" style="stroke:#038048;stroke-width:1.0;"/><text fill="#000000" font-family="sans-serif" font-size="14" lengthAdjust="spacing" textLength="125" x="1517.5" y="637.312">static int Precision</text><line style="stroke:#181818;stroke-width:0.5;" x1="1498.5" x2="2145.5" y1="644.6138" y2="644.6138"/><ellipse cx="1508.5" cy="658.2622" fill="#84BE84" rx="3" ry="3" style="stroke:#038048;stroke-width:1.0;"/><text fill="#000000" font-family="sans-serif" font-size="14" lengthAdjust="spacing" textLength="623" x="1517.5" y="661.6089">SolveByRectangles(Expression func, double upperBound, double lowerBound, string args)</text><ellipse cx="1508.5" cy="674.5591" fill="#84BE84" rx="3" ry="3" style="stroke:#038048;stroke-width:1.0;"/><text fill="#000000" font-family="sans-serif" font-size="14" lengthAdjust="spacing" textLength="605" x="1517.5" y="677.9057">SolveBySimpson(Expression func, double upperBound, double lowerBound, string args)</text><ellipse cx="1508.5" cy="690.8559" fill="#84BE84" rx="3" ry="3" style="stroke:#038048;stroke-width:1.0;"/><text fill="#000000" font-family="sans-serif" font-size="14" lengthAdjust="spacing" textLength="618" x="1517.5" y="694.2026">SolveByTrapezium(Expression func, double upperBound, double lowerBound, string args)</text></g><!--class MainViewModel--><g id="elem_MainViewModel"><rect codeLine="34" fill="#F1F1F1" height="488.0156" id="MainViewModel" rx="2.5" ry="2.5" style="stroke:#181818;stroke-width:0.5;" width="448" x="1501" y="7"/><ellipse cx="1667.75" cy="23" fill="#ADD1B2" rx="11" ry="11" style="stroke:#181818;stroke-width:1.0;"/><path d="M1670.7188,28.6406 Q1670.1406,28.9375 1669.5,29.0781 Q1668.8594,29.2344 1668.1563,29.2344 Q1665.6563,29.2344 1664.3281,27.5938 Q1663.0156,25.9375 1663.0156,22.8125 Q1663.0156,19.6875 1664.3281,18.0313 Q1665.6563,16.375 1668.1563,16.375 Q1668.8594,16.375 1669.5,16.5313 Q1670.1563,16.6875 1670.7188,16.9844 L1670.7188,19.7031 Q1670.0938,19.125 1669.5,18.8594 Q1668.9063,18.5781 1668.2813,18.5781 Q1666.9375,18.5781 1666.25,19.6563 Q1665.5625,20.7188 1665.5625,22.8125 Q1665.5625,24.9063 1666.25,25.9844 Q1666.9375,27.0469 1668.2813,27.0469 Q1668.9063,27.0469 1669.5,26.7813 Q1670.0938,26.5 1670.7188,25.9219 L1670.7188,28.6406 Z " fill="#000000"/><text fill="#000000" font-family="sans-serif" font-size="14" lengthAdjust="spacing" textLength="106" x="1688.25" y="27.8467">MainViewModel</text><line style="stroke:#181818;stroke-width:0.5;" x1="1502" x2="1948" y1="39" y2="39"/><rect fill="none" height="6" style="stroke:#C82930;stroke-width:1.0;" width="6" x="1509" y="49.6484"/><text fill="#000000" font-family="sans-serif" font-size="14" lengthAdjust="spacing" textLength="106" x="1521" y="55.9951">string _function</text><rect fill="none" height="6" style="stroke:#C82930;stroke-width:1.0;" width="6" x="1509" y="65.9453"/><text fill="#000000" font-family="sans-serif" font-size="14" lengthAdjust="spacing" textLength="111" x="1521" y="72.292">int _graphPoints</text><rect fill="none" height="6" style="stroke:#C82930;stroke-width:1.0;" width="6" x="1509" y="82.2422"/><text fill="#000000" font-family="sans-serif" font-size="14" lengthAdjust="spacing" textLength="106" x="1521" y="88.5889">double _lowerB</text><rect fill="none" height="6" style="stroke:#C82930;stroke-width:1.0;" width="6" x="1509" y="98.5391"/><text fill="#000000" font-family="sans-serif" font-size="14" lengthAdjust="spacing" textLength="133" x="1521" y="104.8857">string _lowerBound</text><rect fill="none" height="6" style="stroke:#C82930;stroke-width:1.0;" width="6" x="1509" y="114.8359"/><text fill="#000000" font-family="sans-serif" font-size="14" lengthAdjust="spacing" textLength="198" x="1521" y="121.1826">Expression _mathExpression</text><rect fill="none" height="6" style="stroke:#C82930;stroke-width:1.0;" width="6" x="1509" y="131.1328"/><text fill="#000000" font-family="sans-serif" font-size="14" lengthAdjust="spacing" textLength="114" x="1521" y="137.4795">string _message</text><rect fill="none" height="6" style="stroke:#C82930;stroke-width:1.0;" width="6" x="1509" y="147.4297"/><text fill="#000000" font-family="sans-serif" font-size="14" lengthAdjust="spacing" textLength="150" x="1521" y="153.7764">string _messageColor</text><rect fill="none" height="6" style="stroke:#C82930;stroke-width:1.0;" width="6" x="1509" y="163.7266"/><text fill="#000000" font-family="sans-serif" font-size="14" lengthAdjust="spacing" textLength="91" x="1521" y="170.0732">int _precision</text><rect fill="none" height="6" style="stroke:#C82930;stroke-width:1.0;" width="6" x="1509" y="180.0234"/><text fill="#000000" font-family="sans-serif" font-size="14" lengthAdjust="spacing" textLength="138" x="1521" y="186.3701">string _showIntegral</text><rect fill="none" height="6" style="stroke:#C82930;stroke-width:1.0;" width="6" x="1509" y="196.3203"/><text fill="#000000" font-family="sans-serif" font-size="14" lengthAdjust="spacing" textLength="110" x="1521" y="202.667">double _upperB</text><rect fill="none" height="6" style="stroke:#C82930;stroke-width:1.0;" width="6" x="1509" y="212.6172"/><text fill="#000000" font-family="sans-serif" font-size="14" lengthAdjust="spacing" textLength="137" x="1521" y="218.9639">string _upperBound</text><ellipse cx="1512" cy="231.9141" fill="none" rx="3" ry="3" style="stroke:#038048;stroke-width:1.0;"/><text fill="#000000" font-family="sans-serif" font-size="14" lengthAdjust="spacing" textLength="372" x="1521" y="235.2607">ObservableCollection&lt;ulong&gt; Difficulties { get; set; }</text><ellipse cx="1512" cy="248.2109" fill="none" rx="3" ry="3" style="stroke:#038048;stroke-width:1.0;"/><text fill="#000000" font-family="sans-serif" font-size="14" lengthAdjust="spacing" textLength="422" x="1521" y="251.5576">ObservableCollection&lt;FormulaControl&gt; Options { get; set; }</text><ellipse cx="1512" cy="264.5078" fill="none" rx="3" ry="3" style="stroke:#038048;stroke-width:1.0;"/><text fill="#000000" font-family="sans-serif" font-size="14" lengthAdjust="spacing" textLength="229" x="1521" y="267.8545">PlotModel PlotModel { get; set; }</text><ellipse cx="1512" cy="280.8047" fill="none" rx="3" ry="3" style="stroke:#038048;stroke-width:1.0;"/><text fill="#000000" font-family="sans-serif" font-size="14" lengthAdjust="spacing" textLength="354" x="1521" y="284.1514">ObservableCollection&lt;string&gt; Results { get; set; }</text><ellipse cx="1512" cy="297.1016" fill="none" rx="3" ry="3" style="stroke:#038048;stroke-width:1.0;"/><text fill="#000000" font-family="sans-serif" font-size="14" lengthAdjust="spacing" textLength="289" x="1521" y="300.4482">FormulaControl SelectedItem { get; set; }</text><line style="stroke:#181818;stroke-width:0.5;" x1="1502" x2="1948" y1="307.75" y2="307.75"/><ellipse cx="1512" cy="321.3984" fill="#84BE84" rx="3" ry="3" style="stroke:#038048;stroke-width:1.0;"/><text fill="#000000" font-family="sans-serif" font-size="14" lengthAdjust="spacing" textLength="116" x="1521" y="324.7451">void CallSolvers()</text><ellipse cx="1512" cy="337.6953" fill="#84BE84" rx="3" ry="3" style="stroke:#038048;stroke-width:1.0;"/><text fill="#000000" font-family="sans-serif" font-size="14" lengthAdjust="spacing" textLength="121" x="1521" y="341.042">void CheckInput()</text><ellipse cx="1512" cy="353.9922" fill="#84BE84" rx="3" ry="3" style="stroke:#038048;stroke-width:1.0;"/><text fill="#000000" font-family="sans-serif" font-size="14" lengthAdjust="spacing" textLength="311" x="1521" y="357.3389">string ConvertFunctionMarkdown(string func)</text><ellipse cx="1512" cy="370.2891" fill="#84BE84" rx="3" ry="3" style="stroke:#038048;stroke-width:1.0;"/><text fill="#000000" font-family="sans-serif" font-size="14" lengthAdjust="spacing" textLength="274" x="1521" y="373.6357">string ConvertFunctionMath(string func)</text><ellipse cx="1512" cy="386.5859" fill="#84BE84" rx="3" ry="3" style="stroke:#038048;stroke-width:1.0;"/><text fill="#000000" font-family="sans-serif" font-size="14" lengthAdjust="spacing" textLength="177" x="1521" y="389.9326">void ConvertInputInMath()</text><ellipse cx="1512" cy="402.8828" fill="#84BE84" rx="3" ry="3" style="stroke:#038048;stroke-width:1.0;"/><text fill="#000000" font-family="sans-serif" font-size="14" lengthAdjust="spacing" textLength="119" x="1521" y="406.2295">void DrawGraph()</text><ellipse cx="1512" cy="419.1797" fill="#84BE84" rx="3" ry="3" style="stroke:#038048;stroke-width:1.0;"/><text fill="#000000" font-family="sans-serif" font-size="14" lengthAdjust="spacing" textLength="148" x="1521" y="422.5264">void EmitComboBox()</text><ellipse cx="1512" cy="435.4766" fill="#84BE84" rx="3" ry="3" style="stroke:#038048;stroke-width:1.0;"/><text fill="#000000" font-family="sans-serif" font-size="14" lengthAdjust="spacing" textLength="138" x="1521" y="438.8232">void InitializeGraph()</text><ellipse cx="1512" cy="451.7734" fill="#84BE84" rx="3" ry="3" style="stroke:#038048;stroke-width:1.0;"/><text fill="#000000" font-family="sans-serif" font-size="14" lengthAdjust="spacing" textLength="179" x="1521" y="455.1201">bool IsNumber(string text)</text><ellipse cx="1512" cy="468.0703" fill="#84BE84" rx="3" ry="3" style="stroke:#038048;stroke-width:1.0;"/><text fill="#000000" font-family="sans-serif" font-size="14" lengthAdjust="spacing" textLength="148" x="1521" y="471.417">void MainViewModel()</text><ellipse cx="1512" cy="484.3672" fill="#84BE84" rx="3" ry="3" style="stroke:#038048;stroke-width:1.0;"/><text fill="#000000" font-family="sans-serif" font-size="14" lengthAdjust="spacing" textLength="140" x="1521" y="487.7139">void ValidateResult()</text></g><!--class Regex--><g id="elem_Regex"><rect codeLine="64" fill="#F1F1F1" height="80.5938" id="Regex" rx="2.5" ry="2.5" style="stroke:#181818;stroke-width:0.5;" width="328" x="1134" y="596.46"/><ellipse cx="1271.75" cy="612.46" fill="#ADD1B2" rx="11" ry="11" style="stroke:#181818;stroke-width:1.0;"/><path d="M1274.7188,618.1006 Q1274.1406,618.3975 1273.5,618.5381 Q1272.8594,618.6944 1272.1563,618.6944 Q1269.6563,618.6944 1268.3281,617.0538 Q1267.0156,615.3975 1267.0156,612.2725 Q1267.0156,609.1475 1268.3281,607.4913 Q1269.6563,605.835 1272.1563,605.835 Q1272.8594,605.835 1273.5,605.9913 Q1274.1563,606.1475 1274.7188,606.4444 L1274.7188,609.1631 Q1274.0938,608.585 1273.5,608.3194 Q1272.9063,608.0381 1272.2813,608.0381 Q1270.9375,608.0381 1270.25,609.1163 Q1269.5625,610.1788 1269.5625,612.2725 Q1269.5625,614.3663 1270.25,615.4444 Q1270.9375,616.5069 1272.2813,616.5069 Q1272.9063,616.5069 1273.5,616.2413 Q1274.0938,615.96 1274.7188,615.3819 L1274.7188,618.1006 Z " fill="#000000"/><text fill="#000000" font-family="sans-serif" font-size="14" lengthAdjust="spacing" textLength="44" x="1292.25" y="617.3067">Regex</text><line style="stroke:#181818;stroke-width:0.5;" x1="1135" x2="1461" y1="628.46" y2="628.46"/><ellipse cx="1145" cy="642.1084" fill="none" rx="3" ry="3" style="stroke:#038048;stroke-width:1.0;"/><text fill="#000000" font-family="sans-serif" font-size="14" lengthAdjust="spacing" textLength="302" x="1154" y="645.4551">static Dictionary&lt;string, string&gt; Markdowns</text><ellipse cx="1145" cy="658.4053" fill="none" rx="3" ry="3" style="stroke:#038048;stroke-width:1.0;"/><text fill="#000000" font-family="sans-serif" font-size="14" lengthAdjust="spacing" textLength="299" x="1154" y="661.752">static Dictionary&lt;string, string&gt; Operations</text><line style="stroke:#181818;stroke-width:0.5;" x1="1135" x2="1461" y1="669.0538" y2="669.0538"/></g><!--class Window--><g id="elem_Window"><rect codeLine="69" fill="#F1F1F1" height="64.2969" id="Window" rx="2.5" ry="2.5" style="stroke:#181818;stroke-width:0.5;" width="132" x="2475" y="218.86"/><ellipse cx="2510.7" cy="234.86" fill="#ADD1B2" rx="11" ry="11" style="stroke:#181818;stroke-width:1.0;"/><path d="M2513.6688,240.5006 Q2513.0906,240.7975 2512.45,240.9381 Q2511.8094,241.0944 2511.1063,241.0944 Q2508.6063,241.0944 2507.2781,239.4538 Q2505.9656,237.7975 2505.9656,234.6725 Q2505.9656,231.5475 2507.2781,229.8913 Q2508.6063,228.235 2511.1063,228.235 Q2511.8094,228.235 2512.45,228.3913 Q2513.1063,228.5475 2513.6688,228.8444 L2513.6688,231.5631 Q2513.0438,230.985 2512.45,230.7194 Q2511.8563,230.4381 2511.2313,230.4381 Q2509.8875,230.4381 2509.2,231.5163 Q2508.5125,232.5788 2508.5125,234.6725 Q2508.5125,236.7663 2509.2,237.8444 Q2509.8875,238.9069 2511.2313,238.9069 Q2511.8563,238.9069 2512.45,238.6413 Q2513.0438,238.36 2513.6688,237.7819 L2513.6688,240.5006 Z " fill="#000000"/><text fill="#000000" font-family="sans-serif" font-size="14" lengthAdjust="spacing" textLength="54" x="2529.3" y="239.7067">Window</text><line style="stroke:#181818;stroke-width:0.5;" x1="2476" x2="2606" y1="250.86" y2="250.86"/><ellipse cx="2486" cy="264.5084" fill="none" rx="3" ry="3" style="stroke:#038048;stroke-width:1.0;"/><text fill="#000000" font-family="sans-serif" font-size="14" lengthAdjust="spacing" textLength="106" x="2495" y="267.8551">ContentControl</text><line style="stroke:#181818;stroke-width:0.5;" x1="2476" x2="2606" y1="275.1569" y2="275.1569"/></g><!--class GraphWindow--><g id="elem_GraphWindow"><rect codeLine="73" fill="#F1F1F1" height="64.2969" id="GraphWindow" rx="2.5" ry="2.5" style="stroke:#181818;stroke-width:0.5;" width="132" x="2181" y="604.61"/><ellipse cx="2197.8" cy="620.61" fill="#ADD1B2" rx="11" ry="11" style="stroke:#181818;stroke-width:1.0;"/><path d="M2200.7688,626.2506 Q2200.1906,626.5475 2199.55,626.6881 Q2198.9094,626.8444 2198.2063,626.8444 Q2195.7063,626.8444 2194.3781,625.2038 Q2193.0656,623.5475 2193.0656,620.4225 Q2193.0656,617.2975 2194.3781,615.6413 Q2195.7063,613.985 2198.2063,613.985 Q2198.9094,613.985 2199.55,614.1413 Q2200.2063,614.2975 2200.7688,614.5944 L2200.7688,617.3131 Q2200.1438,616.735 2199.55,616.4694 Q2198.9563,616.1881 2198.3313,616.1881 Q2196.9875,616.1881 2196.3,617.2663 Q2195.6125,618.3288 2195.6125,620.4225 Q2195.6125,622.5163 2196.3,623.5944 Q2196.9875,624.6569 2198.3313,624.6569 Q2198.9563,624.6569 2199.55,624.3913 Q2200.1438,624.11 2200.7688,623.5319 L2200.7688,626.2506 Z " fill="#000000"/><text fill="#000000" font-family="sans-serif" font-size="14" lengthAdjust="spacing" textLength="96" x="2212.2" y="625.4567">GraphWindow</text><line style="stroke:#181818;stroke-width:0.5;" x1="2182" x2="2312" y1="636.61" y2="636.61"/><line style="stroke:#181818;stroke-width:0.5;" x1="2182" x2="2312" y1="644.61" y2="644.61"/><ellipse cx="2192" cy="658.2584" fill="#84BE84" rx="3" ry="3" style="stroke:#038048;stroke-width:1.0;"/><text fill="#000000" font-family="sans-serif" font-size="14" lengthAdjust="spacing" textLength="106" x="2201" y="661.6051">GraphWindow()</text></g><!--class InfoWindow--><g id="elem_InfoWindow"><rect codeLine="77" fill="#F1F1F1" height="64.2969" id="InfoWindow" rx="2.5" ry="2.5" style="stroke:#181818;stroke-width:0.5;" width="115" x="2768.5" y="604.61"/><ellipse cx="2785.3" cy="620.61" fill="#ADD1B2" rx="11" ry="11" style="stroke:#181818;stroke-width:1.0;"/><path d="M2788.2688,626.2506 Q2787.6906,626.5475 2787.05,626.6881 Q2786.4094,626.8444 2785.7063,626.8444 Q2783.2063,626.8444 2781.8781,625.2038 Q2780.5656,623.5475 2780.5656,620.4225 Q2780.5656,617.2975 2781.8781,615.6413 Q2783.2063,613.985 2785.7063,613.985 Q2786.4094,613.985 2787.05,614.1413 Q2787.7063,614.2975 2788.2688,614.5944 L2788.2688,617.3131 Q2787.6438,616.735 2787.05,616.4694 Q2786.4563,616.1881 2785.8313,616.1881 Q2784.4875,616.1881 2783.8,617.2663 Q2783.1125,618.3288 2783.1125,620.4225 Q2783.1125,622.5163 2783.8,623.5944 Q2784.4875,624.6569 2785.8313,624.6569 Q2786.4563,624.6569 2787.05,624.3913 Q2787.6438,624.11 2788.2688,623.5319 L2788.2688,626.2506 Z " fill="#000000"/><text fill="#000000" font-family="sans-serif" font-size="14" lengthAdjust="spacing" textLength="79" x="2799.7" y="625.4567">InfoWindow</text><line style="stroke:#181818;stroke-width:0.5;" x1="2769.5" x2="2882.5" y1="636.61" y2="636.61"/><line style="stroke:#181818;stroke-width:0.5;" x1="2769.5" x2="2882.5" y1="644.61" y2="644.61"/><ellipse cx="2779.5" cy="658.2584" fill="#84BE84" rx="3" ry="3" style="stroke:#038048;stroke-width:1.0;"/><text fill="#000000" font-family="sans-serif" font-size="14" lengthAdjust="spacing" textLength="89" x="2788.5" y="661.6051">InfoWindow()</text></g><!--class MainWindow--><g id="elem_MainWindow"><rect codeLine="81" fill="#F1F1F1" height="96.8906" id="MainWindow" rx="2.5" ry="2.5" style="stroke:#181818;stroke-width:0.5;" width="386" x="2348" y="588.31"/><ellipse cx="2493.75" cy="604.31" fill="#ADD1B2" rx="11" ry="11" style="stroke:#181818;stroke-width:1.0;"/><path d="M2496.7188,609.9506 Q2496.1406,610.2475 2495.5,610.3881 Q2494.8594,610.5444 2494.1563,610.5444 Q2491.6563,610.5444 2490.3281,608.9038 Q2489.0156,607.2475 2489.0156,604.1225 Q2489.0156,600.9975 2490.3281,599.3413 Q2491.6563,597.685 2494.1563,597.685 Q2494.8594,597.685 2495.5,597.8413 Q2496.1563,597.9975 2496.7188,598.2944 L2496.7188,601.0131 Q2496.0938,600.435 2495.5,600.1694 Q2494.9063,599.8881 2494.2813,599.8881 Q2492.9375,599.8881 2492.25,600.9663 Q2491.5625,602.0288 2491.5625,604.1225 Q2491.5625,606.2163 2492.25,607.2944 Q2492.9375,608.3569 2494.2813,608.3569 Q2494.9063,608.3569 2495.5,608.0913 Q2496.0938,607.81 2496.7188,607.2319 L2496.7188,609.9506 Z " fill="#000000"/><text fill="#000000" font-family="sans-serif" font-size="14" lengthAdjust="spacing" textLength="86" x="2514.25" y="609.1567">MainWindow</text><line style="stroke:#181818;stroke-width:0.5;" x1="2349" x2="2733" y1="620.31" y2="620.31"/><line style="stroke:#181818;stroke-width:0.5;" x1="2349" x2="2733" y1="628.31" y2="628.31"/><ellipse cx="2359" cy="641.9584" fill="#84BE84" rx="3" ry="3" style="stroke:#038048;stroke-width:1.0;"/><text fill="#000000" font-family="sans-serif" font-size="14" lengthAdjust="spacing" textLength="96" x="2368" y="645.3051">MainWindow()</text><ellipse cx="2359" cy="658.2553" fill="#84BE84" rx="3" ry="3" style="stroke:#038048;stroke-width:1.0;"/><text fill="#000000" font-family="sans-serif" font-size="14" lengthAdjust="spacing" textLength="360" x="2368" y="661.602">void ShowGraph(object sender, RoutedEventArgs e)</text><ellipse cx="2359" cy="674.5522" fill="#84BE84" rx="3" ry="3" style="stroke:#038048;stroke-width:1.0;"/><text fill="#000000" font-family="sans-serif" font-size="14" lengthAdjust="spacing" textLength="343" x="2368" y="677.8989">void ShowInfo(object sender, RoutedEventArgs e)</text></g><!--class ICommand--><g id="elem_ICommand"><rect codeLine="87" fill="#F1F1F1" height="48" id="ICommand" rx="2.5" ry="2.5" style="stroke:#181818;stroke-width:0.5;" width="106" x="2944" y="227.01"/><ellipse cx="2959" cy="243.01" fill="#B4A7E5" rx="11" ry="11" style="stroke:#181818;stroke-width:1.0;"/><path d="M2954.9219,238.7756 L2954.9219,236.6194 L2962.3125,236.6194 L2962.3125,238.7756 L2959.8438,238.7756 L2959.8438,246.8538 L2962.3125,246.8538 L2962.3125,249.01 L2954.9219,249.01 L2954.9219,246.8538 L2957.3906,246.8538 L2957.3906,238.7756 L2954.9219,238.7756 Z " fill="#000000"/><text fill="#000000" font-family="sans-serif" font-size="14" font-style="italic" lengthAdjust="spacing" textLength="74" x="2973" y="247.8567">ICommand</text><line style="stroke:#181818;stroke-width:0.5;" x1="2945" x2="3049" y1="259.01" y2="259.01"/><line style="stroke:#181818;stroke-width:0.5;" x1="2945" x2="3049" y1="267.01" y2="267.01"/></g><!--class ObservableObject--><g id="elem_ObservableObject"><rect codeLine="90" fill="#F1F1F1" height="48" id="ObservableObject" rx="2.5" ry="2.5" style="stroke:#181818;stroke-width:0.5;" width="155" x="3085.5" y="227.01"/><ellipse cx="3100.5" cy="243.01" fill="#A9DCDF" rx="11" ry="11" style="stroke:#181818;stroke-width:1.0;"/><path d="M3100.6094,238.3538 L3099.4531,243.4319 L3101.7813,243.4319 L3100.6094,238.3538 Z M3099.125,236.1194 L3102.1094,236.1194 L3105.4688,248.51 L3103.0156,248.51 L3102.25,245.4475 L3098.9688,245.4475 L3098.2188,248.51 L3095.7813,248.51 L3099.125,236.1194 Z " fill="#000000"/><text fill="#000000" font-family="sans-serif" font-size="14" font-style="italic" lengthAdjust="spacing" textLength="123" x="3114.5" y="247.8567">ObservableObject</text><line style="stroke:#181818;stroke-width:0.5;" x1="3086.5" x2="3239.5" y1="259.01" y2="259.01"/><line style="stroke:#181818;stroke-width:0.5;" x1="3086.5" x2="3239.5" y1="267.01" y2="267.01"/></g><!--class GeneratedInternalTypeHelper--><g id="elem_GeneratedInternalTypeHelper"><rect codeLine="93" fill="#F1F1F1" height="48" id="GeneratedInternalTypeHelper" rx="2.5" ry="2.5" style="stroke:#181818;stroke-width:0.5;" width="236" x="3276" y="227.01"/><ellipse cx="3291" cy="243.01" fill="#ADD1B2" rx="11" ry="11" style="stroke:#181818;stroke-width:1.0;"/><path d="M3293.9688,248.6506 Q3293.3906,248.9475 3292.75,249.0881 Q3292.1094,249.2444 3291.4063,249.2444 Q3288.9063,249.2444 3287.5781,247.6038 Q3286.2656,245.9475 3286.2656,242.8225 Q3286.2656,239.6975 3287.5781,238.0413 Q3288.9063,236.385 3291.4063,236.385 Q3292.1094,236.385 3292.75,236.5413 Q3293.4063,236.6975 3293.9688,236.9944 L3293.9688,239.7131 Q3293.3438,239.135 3292.75,238.8694 Q3292.1563,238.5881 3291.5313,238.5881 Q3290.1875,238.5881 3289.5,239.6663 Q3288.8125,240.7288 3288.8125,242.8225 Q3288.8125,244.9163 3289.5,245.9944 Q3290.1875,247.0569 3291.5313,247.0569 Q3292.1563,247.0569 3292.75,246.7913 Q3293.3438,246.51 3293.9688,245.9319 L3293.9688,248.6506 Z " fill="#000000"/><text fill="#000000" font-family="sans-serif" font-size="14" lengthAdjust="spacing" textLength="204" x="3305" y="247.8567">GeneratedInternalTypeHelper</text><line style="stroke:#181818;stroke-width:0.5;" x1="3277" x2="3511" y1="259.01" y2="259.01"/><line style="stroke:#181818;stroke-width:0.5;" x1="3277" x2="3511" y1="267.01" y2="267.01"/></g><!--class IQueryAmbient--><g id="elem_IQueryAmbient"><rect codeLine="96" fill="#F1F1F1" height="48" id="IQueryAmbient" rx="2.5" ry="2.5" style="stroke:#181818;stroke-width:0.5;" width="133" x="13.5" y="761.5"/><ellipse cx="28.5" cy="777.5" fill="#B4A7E5" rx="11" ry="11" style="stroke:#181818;stroke-width:1.0;"/><path d="M24.4219,773.2656 L24.4219,771.1094 L31.8125,771.1094 L31.8125,773.2656 L29.3438,773.2656 L29.3438,781.3438 L31.8125,781.3438 L31.8125,783.5 L24.4219,783.5 L24.4219,781.3438 L26.8906,781.3438 L26.8906,773.2656 L24.4219,773.2656 Z " fill="#000000"/><text fill="#000000" font-family="sans-serif" font-size="14" font-style="italic" lengthAdjust="spacing" textLength="101" x="42.5" y="782.3467">IQueryAmbient</text><line style="stroke:#181818;stroke-width:0.5;" x1="14.5" x2="145.5" y1="793.5" y2="793.5"/><line style="stroke:#181818;stroke-width:0.5;" x1="14.5" x2="145.5" y1="801.5" y2="801.5"/></g><!--class ResolveCommand--><g id="elem_ResolveCommand"><rect fill="#F1F1F1" height="48" id="ResolveCommand" rx="2.5" ry="2.5" style="stroke:#181818;stroke-width:0.5;" width="158" x="2918" y="612.76"/><ellipse cx="2933" cy="628.76" fill="#ADD1B2" rx="11" ry="11" style="stroke:#181818;stroke-width:1.0;"/><path d="M2935.9688,634.4006 Q2935.3906,634.6975 2934.75,634.8381 Q2934.1094,634.9944 2933.4063,634.9944 Q2930.9063,634.9944 2929.5781,633.3538 Q2928.2656,631.6975 2928.2656,628.5725 Q2928.2656,625.4475 2929.5781,623.7913 Q2930.9063,622.135 2933.4063,622.135 Q2934.1094,622.135 2934.75,622.2913 Q2935.4063,622.4475 2935.9688,622.7444 L2935.9688,625.4631 Q2935.3438,624.885 2934.75,624.6194 Q2934.1563,624.3381 2933.5313,624.3381 Q2932.1875,624.3381 2931.5,625.4163 Q2930.8125,626.4788 2930.8125,628.5725 Q2930.8125,630.6663 2931.5,631.7444 Q2932.1875,632.8069 2933.5313,632.8069 Q2934.1563,632.8069 2934.75,632.5413 Q2935.3438,632.26 2935.9688,631.6819 L2935.9688,634.4006 Z " fill="#000000"/><text fill="#000000" font-family="sans-serif" font-size="14" lengthAdjust="spacing" textLength="126" x="2947" y="633.6067">ResolveCommand</text><line style="stroke:#181818;stroke-width:0.5;" x1="2919" x2="3075" y1="644.76" y2="644.76"/><line style="stroke:#181818;stroke-width:0.5;" x1="2919" x2="3075" y1="652.76" y2="652.76"/></g><!--link App to Application--><g id="link_App_Application"><path codeLine="101" d="M80,275.44 C80,341.5 80,523.36 80,598.32 " fill="none" id="App-to-Application" style="stroke:#181818;stroke-width:1.0;"/><polygon fill="#181818" points="80,604.32,84,595.32,80,599.32,76,595.32,80,604.32" style="stroke:#181818;stroke-width:1.0;"/></g><!--link Application to IQueryAmbient--><g id="link_Application_IQueryAmbient"><path codeLine="102" d="M80,669.24 C80,696.86 80,730.39 80,755.24 " fill="none" id="Application-to-IQueryAmbient" style="stroke:#181818;stroke-width:1.0;"/><polygon fill="#181818" points="80,761.24,84,752.24,80,756.24,76,752.24,80,761.24" style="stroke:#181818;stroke-width:1.0;"/></g><!--reverse link Exception to FunctionException--><g id="link_Exception_FunctionException"><path codeLine="103" d="M623.1516,298.7246 C581.6916,365.8546 493.69,508.35 444.5,587.99 " fill="none" id="Exception-backto-FunctionException" style="stroke:#181818;stroke-width:1.0;"/><polygon fill="none" points="632.61,283.41,618.0467,295.5718,628.2564,301.8774,632.61,283.41" style="stroke:#181818;stroke-width:1.0;"/></g><!--reverse link Exception to NanException--><g id="link_Exception_NanException"><path codeLine="104" d="M680.7387,298.743 C722.0187,365.873 809.65,508.35 858.63,587.99 " fill="none" id="Exception-backto-NanException" style="stroke:#181818;stroke-width:1.0;"/><polygon fill="none" points="671.31,283.41,675.6277,301.8859,685.8497,295.6001,671.31,283.41" style="stroke:#181818;stroke-width:1.0;"/></g><!--reverse link MainViewModel to Regex--><g id="link_MainViewModel_Regex"><path codeLine="107" d="M1491.6349,461.7414 C1431.0949,516.1514 1380.65,561.48 1342,596.21 " fill="none" id="MainViewModel-backto-Regex" style="stroke:#181818;stroke-width:1.0;"/><polygon fill="#181818" points="1500.56,453.72,1493.4237,454.7557,1491.6349,461.7414,1498.7712,460.7057,1500.56,453.72" style="stroke:#181818;stroke-width:1.0;"/><text fill="#000000" font-family="sans-serif" font-size="13" lengthAdjust="spacing" textLength="30" x="1414" y="538.0869">uses</text></g><!--reverse link Regex to MainViewModel--><g id="link_Regex_MainViewModel"><path codeLine="116" d="M1378.0812,593.0042 C1404.4512,577.6042 1428.44,561.91 1453,542.02 C1470.97,527.46 1488.9,511.75 1506.48,495.44 " fill="none" id="Regex-backto-MainViewModel" style="stroke:#181818;stroke-width:1.0;"/><polygon fill="#181818" points="1372.9,596.03,1382.689,594.9454,1377.2176,593.5085,1378.6546,588.0372,1372.9,596.03" style="stroke:#181818;stroke-width:1.0;"/><text fill="#000000" font-family="sans-serif" font-size="13" lengthAdjust="spacing" textLength="55" x="1471" y="538.0869">depends</text></g><!--reverse link MainViewModel to IntegralSolver--><g id="link_MainViewModel_IntegralSolver"><path codeLine="108" d="M1789.4408,506.9441 C1796.5008,534.8741 1800.22,549.59 1805.82,571.76 " fill="none" id="MainViewModel-backto-IntegralSolver" style="stroke:#181818;stroke-width:1.0;"/><polygon fill="#181818" points="1786.5,495.31,1784.0924,502.1073,1789.4408,506.9441,1791.8484,500.1468,1786.5,495.31" style="stroke:#181818;stroke-width:1.0;"/><text fill="#000000" font-family="sans-serif" font-size="13" lengthAdjust="spacing" textLength="30" x="1797" y="538.0869">uses</text></g><!--reverse link IntegralSolver to MainViewModel--><g id="link_IntegralSolver_MainViewModel"><path codeLine="117" d="M1744.9162,566.9055 C1737.8762,557.6555 1735.37,552.48 1731,542.02 C1724.79,527.15 1720.04,511.46 1716.48,495.4 " fill="none" id="IntegralSolver-backto-MainViewModel" style="stroke:#181818;stroke-width:1.0;"/><polygon fill="#181818" points="1748.55,571.68,1746.2823,562.0958,1745.5219,567.7013,1739.9164,566.9408,1748.55,571.68" style="stroke:#181818;stroke-width:1.0;"/><text fill="#000000" font-family="sans-serif" font-size="13" lengthAdjust="spacing" textLength="55" x="1732" y="538.0869">depends</text></g><!--reverse link MainViewModel to MainWindow--><g id="link_MainViewModel_MainWindow"><path codeLine="109" d="M1959.9181,382.1174 C2061.0481,436.0574 2172.26,492.42 2285,542.02 C2321.83,558.22 2362.42,573.99 2400.22,587.84 " fill="none" id="MainViewModel-backto-MainWindow" style="stroke:#181818;stroke-width:1.0;"/><polygon fill="#181818" points="1949.33,376.47,1952.7416,382.823,1959.9181,382.1174,1956.5065,375.7643,1949.33,376.47" style="stroke:#181818;stroke-width:1.0;"/><text fill="#000000" font-family="sans-serif" font-size="13" lengthAdjust="spacing" textLength="30" x="2286" y="538.0869">uses</text></g><!--reverse link MainViewModel to InfoWindow--><g id="link_MainViewModel_InfoWindow"><path codeLine="110" d="M1960.3559,356.7318 C2112.9759,420.7518 2310.07,495.59 2501,542.02 C2609.74,568.46 2648.45,527.21 2751,572.02 C2768.07,579.47 2784.2,592.14 2797.1,604.22 " fill="none" id="MainViewModel-backto-InfoWindow" style="stroke:#181818;stroke-width:1.0;"/><polygon fill="#181818" points="1949.29,352.09,1953.2757,358.0995,1960.3559,356.7318,1956.3702,350.7223,1949.29,352.09" style="stroke:#181818;stroke-width:1.0;"/><text fill="#000000" font-family="sans-serif" font-size="13" lengthAdjust="spacing" textLength="30" x="2502" y="538.0869">uses</text></g><!--reverse link MainViewModel to GraphWindow--><g id="link_MainViewModel_GraphWindow"><path codeLine="111" d="M1958.9162,451.3481 C2004.8662,486.2481 2044.5,513.36 2093,542.02 C2122.49,559.44 2134.4,554.78 2164,572.02 C2180.01,581.34 2196.44,593.36 2210.42,604.43 " fill="none" id="MainViewModel-backto-GraphWindow" style="stroke:#181818;stroke-width:1.0;"/><polygon fill="#181818" points="1949.36,444.09,1951.7187,450.9044,1958.9162,451.3481,1956.5574,444.5337,1949.36,444.09" style="stroke:#181818;stroke-width:1.0;"/><text fill="#000000" font-family="sans-serif" font-size="13" lengthAdjust="spacing" textLength="30" x="2094" y="538.0869">uses</text></g><!--reverse link MainViewModel to NanException--><g id="link_MainViewModel_NanException"><path codeLine="112" d="M1489.7918,359.8512 C1324.7918,435.5012 1118.94,529.88 992.4,587.89 " fill="none" id="MainViewModel-backto-NanException" style="stroke:#181818;stroke-width:1.0;"/><polygon fill="#181818" points="1500.7,354.85,1493.5789,353.7146,1489.7918,359.8512,1496.913,360.9867,1500.7,354.85" style="stroke:#181818;stroke-width:1.0;"/><text fill="#000000" font-family="sans-serif" font-size="13" lengthAdjust="spacing" textLength="30" x="1114" y="538.0869">uses</text></g><!--reverse link MainViewModel to FunctionException--><g id="link_MainViewModel_FunctionException"><path codeLine="113" d="M1489.4238,338.7912 C1310.5738,402.4012 1063.96,484.76 833,542.02 C757.26,560.79 736.27,555.51 660,572.02 C637.88,576.8 614.74,582.24 591.89,587.88 " fill="none" id="MainViewModel-backto-FunctionException" style="stroke:#181818;stroke-width:1.0;"/><polygon fill="#181818" points="1500.73,334.77,1493.7365,333.0119,1489.4238,338.7912,1496.4173,340.5493,1500.73,334.77" style="stroke:#181818;stroke-width:1.0;"/><text fill="#000000" font-family="sans-serif" font-size="13" lengthAdjust="spacing" textLength="30" x="883" y="538.0869">uses</text></g><!--reverse link Window to MainWindow--><g id="link_Window_MainWindow"><path codeLine="120" d="M2541,301.41 C2541,368.54 2541,508.35 2541,587.99 " fill="none" id="Window-backto-MainWindow" style="stroke:#181818;stroke-width:1.0;"/><polygon fill="none" points="2541,283.41,2535,301.41,2547,301.41,2541,283.41" style="stroke:#181818;stroke-width:1.0;"/></g><!--reverse link Window to GraphWindow--><g id="link_Window_GraphWindow"><path codeLine="121" d="M2505.993,297.6986 C2450.793,369.7486 2326.51,531.98 2271.19,604.19 " fill="none" id="Window-backto-GraphWindow" style="stroke:#181818;stroke-width:1.0;"/><polygon fill="none" points="2516.94,283.41,2501.2302,294.0496,2510.7559,301.3476,2516.94,283.41" style="stroke:#181818;stroke-width:1.0;"/></g><!--reverse link Window to InfoWindow--><g id="link_Window_InfoWindow"><path codeLine="122" d="M2575.0522,297.8606 C2628.5622,369.9106 2748.93,531.98 2802.56,604.19 " fill="none" id="Window-backto-InfoWindow" style="stroke:#181818;stroke-width:1.0;"/><polygon fill="none" points="2564.32,283.41,2570.2353,301.438,2579.869,294.2832,2564.32,283.41" style="stroke:#181818;stroke-width:1.0;"/></g><!--reverse link ICommand to ResolveCommand--><g id="link_ICommand_ResolveCommand"><path codeLine="123" d="M2997,293.44 C2997,362.11 2997,544.36 2997,612.64 " fill="none" id="ICommand-backto-ResolveCommand" style="stroke:#181818;stroke-width:1.0;"/><polygon fill="none" points="2997,275.44,2991,293.44,3003,293.44,2997,275.44" style="stroke:#181818;stroke-width:1.0;"/></g><!--SRC=[hLRTRjis5BxNK_2kpXfZzrrW87_jV94cIuhkCg2bOvih9Gea5Tlj2jHfDs0Oq3p11kmDl2nPlAvfNu5wenrAiYGgTkQB1h5XdlFnd8yV3ydpW9ZVpUVqZRasL_Zv5p-tPcwkYVc0WrawJQVcaxaaPex_wK_4VCQXHVtpjVbehjDp75vPXEVvd2f5jkEOlF9UruQS-LGp4Q6PuDz3iiTKJBK_17dO-m5yNQ7tnpx4DMpt12IZdBsaFGuLx74I-HRLX3-ywsbjhFGeBLaq824eHGUmBcwpHf954SXok54HV4gNSAiRIrgESJcZUo1haUb66WQIyXF1pq2MT9J6NV59mWN6ssFzFlCJhYUkbqMQ74dmcSAOXIkBipCvnfsZqO23QksFOuc4B8i-ohT90f7WXf4aZa7kY2GAIXCNez9Kh8NAWTfmOv-mC5QusYyU-9caCRnaIVX5GfSI7r0MFMSmEX01y4BXzW9xsYzAgZ1RJKznG-BXaS3VgZ0NoKxpR8qG5ON2KQD_6b8zhCQDcKMbBBVk2YvadLRix7M5LqCnMjHHWsykM0DVgLZeVzXJ8C_iCSQS738zjhBQwrJ5nq2HLsG0-XkYxDVh-oO_5Z9CEDqLaPQ2TyXXLlVB0nnneVEzgNwjdIXVKuSSWqAEonEuPCW9sCaGT3M4I_5dWWLab_BYKAhoFiWTG_1VTACuqQMz41OJ85mlBga3Aby4ObHU2xRI_c-67Yv3vtbpR9QvcqCT_vwaeoUsS5tpViZqhWXxOaUCNKytOZgxly6TrXCeKbSzJS8Uo0KT3MFjp7PEbHluEGODg8PyJrgretWC0nWtBxazbYsUoacncuk3t24B2TNQCmwnjBC7JLLPlsSH1YdJsZg0I1VbKC4o5HhOcgtbtDfzqK1MfbRZxca0AvEhsWcUudmZHFRmOar60SXDSYmIhDRzC-IyZJSRWJlJREurPY4hl4T0zgaFf8j54T8eoFi1saC1AKxFQLT7BMy2wat34uYin7X-RAo8ycUJ6Bu57cVFbvlZkmJaP3liCMIHEnyGyuUvJ2_CZMrQi4anVvkhz6szevcXUUvvjbTfjplr9iMhDopMvoJmgkTswyTs-swpq0JKt-u6C_VDIAS4IRv9tvg_iFtwQ9atwReJliBeUQq_8ea2jSJTUFXNuceLT4-iiXnNOkhLlHBaj4OhKNSxl0BgQBX9KAyFACzD-gkvHB7Ufx_apUkjcH7iIl_4ndQ6FUej-j5wWz1BR6EdcSIVKDjp6mJRs2bgFISud66yBC8yQs_Vf-U8kl1ofRSAiIgkZqW0CHu7vJN4lWzgr_2RtTgiaSwwPynRjDt8mZRZCql84av_Hi8Nbiyjqhl64dbdk- -yBVSAjRDQgxRHCTTsnR5NE-gL1pLpu9rgrr3O_WC0]--></g></svg>