<svg xmlns="http://www.w3.org/2000/svg" xmlns:xlink="http://www.w3.org/1999/xlink" contentStyleType="text/css" height="848px" preserveAspectRatio="none" style="width:2906px;height:848px;background:#FFFFFF;" version="1.1" viewBox="0 0 2906 848" width="2906px" zoomAndPan="magnify"><defs/><g><!--class App--><g id="elem_App"><rect codeLine="3" fill="#F1F1F1" height="48" id="App" rx="2.5" ry="2.5" style="stroke:#181818;stroke-width:0.5;" width="59" x="50.5" y="227.01"/><ellipse cx="65.5" cy="243.01" fill="#ADD1B2" rx="11" ry="11" style="stroke:#181818;stroke-width:1.0;"/><path d="M68.4688,248.6506 Q67.8906,248.9475 67.25,249.0881 Q66.6094,249.2444 65.9063,249.2444 Q63.4063,249.2444 62.0781,247.6038 Q60.7656,245.9475 60.7656,242.8225 Q60.7656,239.6975 62.0781,238.0413 Q63.4063,236.385 65.9063,236.385 Q66.6094,236.385 67.25,236.5413 Q67.9063,236.6975 68.4688,236.9944 L68.4688,239.7131 Q67.8438,239.135 67.25,238.8694 Q66.6563,238.5881 66.0313,238.5881 Q64.6875,238.5881 64,239.6663 Q63.3125,240.7288 63.3125,242.8225 Q63.3125,244.9163 64,245.9944 Q64.6875,247.0569 66.0313,247.0569 Q66.6563,247.0569 67.25,246.7913 Q67.8438,246.51 68.4688,245.9319 L68.4688,248.6506 Z " fill="#000000"/><text fill="#000000" font-family="sans-serif" font-size="14" lengthAdjust="spacing" textLength="27" x="79.5" y="247.8567">App</text><line style="stroke:#181818;stroke-width:0.5;" x1="51.5" x2="108.5" y1="259.01" y2="259.01"/><line style="stroke:#181818;stroke-width:0.5;" x1="51.5" x2="108.5" y1="267.01" y2="267.01"/></g><!--class Application--><g id="elem_Application"><rect codeLine="6" fill="#F1F1F1" height="64.2969" id="Application" rx="2.5" ry="2.5" style="stroke:#181818;stroke-width:0.5;" width="146" x="7" y="571.31"/><ellipse cx="39.55" cy="587.31" fill="#ADD1B2" rx="11" ry="11" style="stroke:#181818;stroke-width:1.0;"/><path d="M42.5188,592.9506 Q41.9406,593.2475 41.3,593.3881 Q40.6594,593.5444 39.9563,593.5444 Q37.4563,593.5444 36.1281,591.9038 Q34.8156,590.2475 34.8156,587.1225 Q34.8156,583.9975 36.1281,582.3413 Q37.4563,580.685 39.9563,580.685 Q40.6594,580.685 41.3,580.8413 Q41.9563,580.9975 42.5188,581.2944 L42.5188,584.0131 Q41.8938,583.435 41.3,583.1694 Q40.7063,582.8881 40.0813,582.8881 Q38.7375,582.8881 38.05,583.9663 Q37.3625,585.0288 37.3625,587.1225 Q37.3625,589.2163 38.05,590.2944 Q38.7375,591.3569 40.0813,591.3569 Q40.7063,591.3569 41.3,591.0913 Q41.8938,590.81 42.5188,590.2319 L42.5188,592.9506 Z " fill="#000000"/><text fill="#000000" font-family="sans-serif" font-size="14" lengthAdjust="spacing" textLength="75" x="57.45" y="592.1567">Application</text><line style="stroke:#181818;stroke-width:0.5;" x1="8" x2="152" y1="603.31" y2="603.31"/><ellipse cx="18" cy="616.9584" fill="none" rx="3" ry="3" style="stroke:#038048;stroke-width:1.0;"/><text fill="#000000" font-family="sans-serif" font-size="14" lengthAdjust="spacing" textLength="120" x="27" y="620.3051">DispatcherObject</text><line style="stroke:#181818;stroke-width:0.5;" x1="8" x2="152" y1="627.6069" y2="627.6069"/></g><!--class Exception--><g id="elem_Exception"><rect codeLine="10" fill="#F1F1F1" height="64.2969" id="Exception" rx="2.5" ry="2.5" style="stroke:#181818;stroke-width:0.5;" width="100" x="585" y="218.86"/><ellipse cx="600" cy="234.86" fill="#ADD1B2" rx="11" ry="11" style="stroke:#181818;stroke-width:1.0;"/><path d="M602.9688,240.5006 Q602.3906,240.7975 601.75,240.9381 Q601.1094,241.0944 600.4063,241.0944 Q597.9063,241.0944 596.5781,239.4538 Q595.2656,237.7975 595.2656,234.6725 Q595.2656,231.5475 596.5781,229.8913 Q597.9063,228.235 600.4063,228.235 Q601.1094,228.235 601.75,228.3913 Q602.4063,228.5475 602.9688,228.8444 L602.9688,231.5631 Q602.3438,230.985 601.75,230.7194 Q601.1563,230.4381 600.5313,230.4381 Q599.1875,230.4381 598.5,231.5163 Q597.8125,232.5788 597.8125,234.6725 Q597.8125,236.7663 598.5,237.8444 Q599.1875,238.9069 600.5313,238.9069 Q601.1563,238.9069 601.75,238.6413 Q602.3438,238.36 602.9688,237.7819 L602.9688,240.5006 Z " fill="#000000"/><text fill="#000000" font-family="sans-serif" font-size="14" lengthAdjust="spacing" textLength="68" x="614" y="239.7067">Exception</text><line style="stroke:#181818;stroke-width:0.5;" x1="586" x2="684" y1="250.86" y2="250.86"/><text fill="#000000" font-family="sans-serif" font-size="14" lengthAdjust="spacing" textLength="80" x="591" y="267.8551">ISerializable</text><line style="stroke:#181818;stroke-width:0.5;" x1="586" x2="684" y1="275.1569" y2="275.1569"/></g><!--class FunctionException--><g id="elem_FunctionException"><rect codeLine="14" fill="#F1F1F1" height="96.8906" id="FunctionException" rx="2.5" ry="2.5" style="stroke:#181818;stroke-width:0.5;" width="454" x="645" y="555.02"/><ellipse cx="803.75" cy="571.02" fill="#ADD1B2" rx="11" ry="11" style="stroke:#181818;stroke-width:1.0;"/><path d="M806.7188,576.6606 Q806.1406,576.9575 805.5,577.0981 Q804.8594,577.2544 804.1563,577.2544 Q801.6563,577.2544 800.3281,575.6138 Q799.0156,573.9575 799.0156,570.8325 Q799.0156,567.7075 800.3281,566.0513 Q801.6563,564.395 804.1563,564.395 Q804.8594,564.395 805.5,564.5513 Q806.1563,564.7075 806.7188,565.0044 L806.7188,567.7231 Q806.0938,567.145 805.5,566.8794 Q804.9063,566.5981 804.2813,566.5981 Q802.9375,566.5981 802.25,567.6763 Q801.5625,568.7388 801.5625,570.8325 Q801.5625,572.9263 802.25,574.0044 Q802.9375,575.0669 804.2813,575.0669 Q804.9063,575.0669 805.5,574.8013 Q806.0938,574.52 806.7188,573.9419 L806.7188,576.6606 Z " fill="#000000"/><text fill="#000000" font-family="sans-serif" font-size="14" lengthAdjust="spacing" textLength="128" x="824.25" y="575.8667">FunctionException</text><line style="stroke:#181818;stroke-width:0.5;" x1="646" x2="1098" y1="587.02" y2="587.02"/><line style="stroke:#181818;stroke-width:0.5;" x1="646" x2="1098" y1="595.02" y2="595.02"/><ellipse cx="656" cy="608.6684" fill="#84BE84" rx="3" ry="3" style="stroke:#038048;stroke-width:1.0;"/><text fill="#000000" font-family="sans-serif" font-size="14" lengthAdjust="spacing" textLength="138" x="665" y="612.0151">FunctionException()</text><ellipse cx="656" cy="624.9653" fill="#84BE84" rx="3" ry="3" style="stroke:#038048;stroke-width:1.0;"/><text fill="#000000" font-family="sans-serif" font-size="14" lengthAdjust="spacing" textLength="245" x="665" y="628.312">FunctionException(string message)</text><ellipse cx="656" cy="641.2622" fill="#84BE84" rx="3" ry="3" style="stroke:#038048;stroke-width:1.0;"/><text fill="#000000" font-family="sans-serif" font-size="14" lengthAdjust="spacing" textLength="428" x="665" y="644.6089">FunctionException(string message, Exception innerException)</text></g><!--class NanException--><g id="elem_NanException"><rect codeLine="20" fill="#F1F1F1" height="96.8906" id="NanException" rx="2.5" ry="2.5" style="stroke:#181818;stroke-width:0.5;" width="421" x="188.5" y="555.02"/><ellipse cx="347.25" cy="571.02" fill="#ADD1B2" rx="11" ry="11" style="stroke:#181818;stroke-width:1.0;"/><path d="M350.2188,576.6606 Q349.6406,576.9575 349,577.0981 Q348.3594,577.2544 347.6563,577.2544 Q345.1563,577.2544 343.8281,575.6138 Q342.5156,573.9575 342.5156,570.8325 Q342.5156,567.7075 343.8281,566.0513 Q345.1563,564.395 347.6563,564.395 Q348.3594,564.395 349,564.5513 Q349.6563,564.7075 350.2188,565.0044 L350.2188,567.7231 Q349.5938,567.145 349,566.8794 Q348.4063,566.5981 347.7813,566.5981 Q346.4375,566.5981 345.75,567.6763 Q345.0625,568.7388 345.0625,570.8325 Q345.0625,572.9263 345.75,574.0044 Q346.4375,575.0669 347.7813,575.0669 Q348.4063,575.0669 349,574.8013 Q349.5938,574.52 350.2188,573.9419 L350.2188,576.6606 Z " fill="#000000"/><text fill="#000000" font-family="sans-serif" font-size="14" lengthAdjust="spacing" textLength="95" x="367.75" y="575.8667">NanException</text><line style="stroke:#181818;stroke-width:0.5;" x1="189.5" x2="608.5" y1="587.02" y2="587.02"/><line style="stroke:#181818;stroke-width:0.5;" x1="189.5" x2="608.5" y1="595.02" y2="595.02"/><ellipse cx="199.5" cy="608.6684" fill="#84BE84" rx="3" ry="3" style="stroke:#038048;stroke-width:1.0;"/><text fill="#000000" font-family="sans-serif" font-size="14" lengthAdjust="spacing" textLength="105" x="208.5" y="612.0151">NanException()</text><ellipse cx="199.5" cy="624.9653" fill="#84BE84" rx="3" ry="3" style="stroke:#038048;stroke-width:1.0;"/><text fill="#000000" font-family="sans-serif" font-size="14" lengthAdjust="spacing" textLength="212" x="208.5" y="628.312">NanException(string message)</text><ellipse cx="199.5" cy="641.2622" fill="#84BE84" rx="3" ry="3" style="stroke:#038048;stroke-width:1.0;"/><text fill="#000000" font-family="sans-serif" font-size="14" lengthAdjust="spacing" textLength="395" x="208.5" y="644.6089">NanException(string message, Exception innerException)</text></g><!--class IntegralSolver--><g id="elem_IntegralSolver"><rect codeLine="26" fill="#F1F1F1" height="129.4844" id="IntegralSolver" rx="2.5" ry="2.5" style="stroke:#181818;stroke-width:0.5;" width="649" x="687.5" y="711.91"/><ellipse cx="961.25" cy="727.91" fill="#ADD1B2" rx="11" ry="11" style="stroke:#181818;stroke-width:1.0;"/><path d="M964.2188,733.5506 Q963.6406,733.8475 963,733.9881 Q962.3594,734.1444 961.6563,734.1444 Q959.1563,734.1444 957.8281,732.5038 Q956.5156,730.8475 956.5156,727.7225 Q956.5156,724.5975 957.8281,722.9413 Q959.1563,721.285 961.6563,721.285 Q962.3594,721.285 963,721.4413 Q963.6563,721.5975 964.2188,721.8944 L964.2188,724.6131 Q963.5938,724.035 963,723.7694 Q962.4063,723.4881 961.7813,723.4881 Q960.4375,723.4881 959.75,724.5663 Q959.0625,725.6288 959.0625,727.7225 Q959.0625,729.8163 959.75,730.8944 Q960.4375,731.9569 961.7813,731.9569 Q962.4063,731.9569 963,731.6913 Q963.5938,731.41 964.2188,730.8319 L964.2188,733.5506 Z " fill="#000000"/><text fill="#000000" font-family="sans-serif" font-size="14" lengthAdjust="spacing" textLength="93" x="981.75" y="732.7567">IntegralSolver</text><line style="stroke:#181818;stroke-width:0.5;" x1="688.5" x2="1335.5" y1="743.91" y2="743.91"/><ellipse cx="698.5" cy="757.5584" fill="none" rx="3" ry="3" style="stroke:#038048;stroke-width:1.0;"/><text fill="#000000" font-family="sans-serif" font-size="14" lengthAdjust="spacing" textLength="141" x="707.5" y="760.9051">static ulong Difficulty</text><ellipse cx="698.5" cy="773.8553" fill="none" rx="3" ry="3" style="stroke:#038048;stroke-width:1.0;"/><text fill="#000000" font-family="sans-serif" font-size="14" lengthAdjust="spacing" textLength="125" x="707.5" y="777.202">static int Precision</text><line style="stroke:#181818;stroke-width:0.5;" x1="688.5" x2="1335.5" y1="784.5038" y2="784.5038"/><ellipse cx="698.5" cy="798.1522" fill="#84BE84" rx="3" ry="3" style="stroke:#038048;stroke-width:1.0;"/><text fill="#000000" font-family="sans-serif" font-size="14" lengthAdjust="spacing" textLength="623" x="707.5" y="801.4989">SolveByRectangles(Expression func, double upperBound, double lowerBound, string args)</text><ellipse cx="698.5" cy="814.4491" fill="#84BE84" rx="3" ry="3" style="stroke:#038048;stroke-width:1.0;"/><text fill="#000000" font-family="sans-serif" font-size="14" lengthAdjust="spacing" textLength="605" x="707.5" y="817.7957">SolveBySimpson(Expression func, double upperBound, double lowerBound, string args)</text><ellipse cx="698.5" cy="830.7459" fill="#84BE84" rx="3" ry="3" style="stroke:#038048;stroke-width:1.0;"/><text fill="#000000" font-family="sans-serif" font-size="14" lengthAdjust="spacing" textLength="618" x="707.5" y="834.0926">SolveByTrapezium(Expression func, double upperBound, double lowerBound, string args)</text></g><!--class MainViewModel--><g id="elem_MainViewModel"><rect codeLine="34" fill="#F1F1F1" height="488.0156" id="MainViewModel" rx="2.5" ry="2.5" style="stroke:#181818;stroke-width:0.5;" width="448" x="1145" y="7"/><ellipse cx="1311.75" cy="23" fill="#ADD1B2" rx="11" ry="11" style="stroke:#181818;stroke-width:1.0;"/><path d="M1314.7188,28.6406 Q1314.1406,28.9375 1313.5,29.0781 Q1312.8594,29.2344 1312.1563,29.2344 Q1309.6563,29.2344 1308.3281,27.5938 Q1307.0156,25.9375 1307.0156,22.8125 Q1307.0156,19.6875 1308.3281,18.0313 Q1309.6563,16.375 1312.1563,16.375 Q1312.8594,16.375 1313.5,16.5313 Q1314.1563,16.6875 1314.7188,16.9844 L1314.7188,19.7031 Q1314.0938,19.125 1313.5,18.8594 Q1312.9063,18.5781 1312.2813,18.5781 Q1310.9375,18.5781 1310.25,19.6563 Q1309.5625,20.7188 1309.5625,22.8125 Q1309.5625,24.9063 1310.25,25.9844 Q1310.9375,27.0469 1312.2813,27.0469 Q1312.9063,27.0469 1313.5,26.7813 Q1314.0938,26.5 1314.7188,25.9219 L1314.7188,28.6406 Z " fill="#000000"/><text fill="#000000" font-family="sans-serif" font-size="14" lengthAdjust="spacing" textLength="106" x="1332.25" y="27.8467">MainViewModel</text><line style="stroke:#181818;stroke-width:0.5;" x1="1146" x2="1592" y1="39" y2="39"/><rect fill="none" height="6" style="stroke:#C82930;stroke-width:1.0;" width="6" x="1153" y="49.6484"/><text fill="#000000" font-family="sans-serif" font-size="14" lengthAdjust="spacing" textLength="106" x="1165" y="55.9951">string _function</text><rect fill="none" height="6" style="stroke:#C82930;stroke-width:1.0;" width="6" x="1153" y="65.9453"/><text fill="#000000" font-family="sans-serif" font-size="14" lengthAdjust="spacing" textLength="111" x="1165" y="72.292">int _graphPoints</text><rect fill="none" height="6" style="stroke:#C82930;stroke-width:1.0;" width="6" x="1153" y="82.2422"/><text fill="#000000" font-family="sans-serif" font-size="14" lengthAdjust="spacing" textLength="106" x="1165" y="88.5889">double _lowerB</text><rect fill="none" height="6" style="stroke:#C82930;stroke-width:1.0;" width="6" x="1153" y="98.5391"/><text fill="#000000" font-family="sans-serif" font-size="14" lengthAdjust="spacing" textLength="133" x="1165" y="104.8857">string _lowerBound</text><rect fill="none" height="6" style="stroke:#C82930;stroke-width:1.0;" width="6" x="1153" y="114.8359"/><text fill="#000000" font-family="sans-serif" font-size="14" lengthAdjust="spacing" textLength="198" x="1165" y="121.1826">Expression _mathExpression</text><rect fill="none" height="6" style="stroke:#C82930;stroke-width:1.0;" width="6" x="1153" y="131.1328"/><text fill="#000000" font-family="sans-serif" font-size="14" lengthAdjust="spacing" textLength="114" x="1165" y="137.4795">string _message</text><rect fill="none" height="6" style="stroke:#C82930;stroke-width:1.0;" width="6" x="1153" y="147.4297"/><text fill="#000000" font-family="sans-serif" font-size="14" lengthAdjust="spacing" textLength="150" x="1165" y="153.7764">string _messageColor</text><rect fill="none" height="6" style="stroke:#C82930;stroke-width:1.0;" width="6" x="1153" y="163.7266"/><text fill="#000000" font-family="sans-serif" font-size="14" lengthAdjust="spacing" textLength="91" x="1165" y="170.0732">int _precision</text><rect fill="none" height="6" style="stroke:#C82930;stroke-width:1.0;" width="6" x="1153" y="180.0234"/><text fill="#000000" font-family="sans-serif" font-size="14" lengthAdjust="spacing" textLength="138" x="1165" y="186.3701">string _showIntegral</text><rect fill="none" height="6" style="stroke:#C82930;stroke-width:1.0;" width="6" x="1153" y="196.3203"/><text fill="#000000" font-family="sans-serif" font-size="14" lengthAdjust="spacing" textLength="110" x="1165" y="202.667">double _upperB</text><rect fill="none" height="6" style="stroke:#C82930;stroke-width:1.0;" width="6" x="1153" y="212.6172"/><text fill="#000000" font-family="sans-serif" font-size="14" lengthAdjust="spacing" textLength="137" x="1165" y="218.9639">string _upperBound</text><ellipse cx="1156" cy="231.9141" fill="none" rx="3" ry="3" style="stroke:#038048;stroke-width:1.0;"/><text fill="#000000" font-family="sans-serif" font-size="14" lengthAdjust="spacing" textLength="372" x="1165" y="235.2607">ObservableCollection&lt;ulong&gt; Difficulties { get; set; }</text><ellipse cx="1156" cy="248.2109" fill="none" rx="3" ry="3" style="stroke:#038048;stroke-width:1.0;"/><text fill="#000000" font-family="sans-serif" font-size="14" lengthAdjust="spacing" textLength="422" x="1165" y="251.5576">ObservableCollection&lt;FormulaControl&gt; Options { get; set; }</text><ellipse cx="1156" cy="264.5078" fill="none" rx="3" ry="3" style="stroke:#038048;stroke-width:1.0;"/><text fill="#000000" font-family="sans-serif" font-size="14" lengthAdjust="spacing" textLength="229" x="1165" y="267.8545">PlotModel PlotModel { get; set; }</text><ellipse cx="1156" cy="280.8047" fill="none" rx="3" ry="3" style="stroke:#038048;stroke-width:1.0;"/><text fill="#000000" font-family="sans-serif" font-size="14" lengthAdjust="spacing" textLength="354" x="1165" y="284.1514">ObservableCollection&lt;string&gt; Results { get; set; }</text><ellipse cx="1156" cy="297.1016" fill="none" rx="3" ry="3" style="stroke:#038048;stroke-width:1.0;"/><text fill="#000000" font-family="sans-serif" font-size="14" lengthAdjust="spacing" textLength="289" x="1165" y="300.4482">FormulaControl SelectedItem { get; set; }</text><line style="stroke:#181818;stroke-width:0.5;" x1="1146" x2="1592" y1="307.75" y2="307.75"/><ellipse cx="1156" cy="321.3984" fill="#84BE84" rx="3" ry="3" style="stroke:#038048;stroke-width:1.0;"/><text fill="#000000" font-family="sans-serif" font-size="14" lengthAdjust="spacing" textLength="116" x="1165" y="324.7451">void CallSolvers()</text><ellipse cx="1156" cy="337.6953" fill="#84BE84" rx="3" ry="3" style="stroke:#038048;stroke-width:1.0;"/><text fill="#000000" font-family="sans-serif" font-size="14" lengthAdjust="spacing" textLength="121" x="1165" y="341.042">void CheckInput()</text><ellipse cx="1156" cy="353.9922" fill="#84BE84" rx="3" ry="3" style="stroke:#038048;stroke-width:1.0;"/><text fill="#000000" font-family="sans-serif" font-size="14" lengthAdjust="spacing" textLength="311" x="1165" y="357.3389">string ConvertFunctionMarkdown(string func)</text><ellipse cx="1156" cy="370.2891" fill="#84BE84" rx="3" ry="3" style="stroke:#038048;stroke-width:1.0;"/><text fill="#000000" font-family="sans-serif" font-size="14" lengthAdjust="spacing" textLength="274" x="1165" y="373.6357">string ConvertFunctionMath(string func)</text><ellipse cx="1156" cy="386.5859" fill="#84BE84" rx="3" ry="3" style="stroke:#038048;stroke-width:1.0;"/><text fill="#000000" font-family="sans-serif" font-size="14" lengthAdjust="spacing" textLength="177" x="1165" y="389.9326">void ConvertInputInMath()</text><ellipse cx="1156" cy="402.8828" fill="#84BE84" rx="3" ry="3" style="stroke:#038048;stroke-width:1.0;"/><text fill="#000000" font-family="sans-serif" font-size="14" lengthAdjust="spacing" textLength="119" x="1165" y="406.2295">void DrawGraph()</text><ellipse cx="1156" cy="419.1797" fill="#84BE84" rx="3" ry="3" style="stroke:#038048;stroke-width:1.0;"/><text fill="#000000" font-family="sans-serif" font-size="14" lengthAdjust="spacing" textLength="148" x="1165" y="422.5264">void EmitComboBox()</text><ellipse cx="1156" cy="435.4766" fill="#84BE84" rx="3" ry="3" style="stroke:#038048;stroke-width:1.0;"/><text fill="#000000" font-family="sans-serif" font-size="14" lengthAdjust="spacing" textLength="138" x="1165" y="438.8232">void InitializeGraph()</text><ellipse cx="1156" cy="451.7734" fill="#84BE84" rx="3" ry="3" style="stroke:#038048;stroke-width:1.0;"/><text fill="#000000" font-family="sans-serif" font-size="14" lengthAdjust="spacing" textLength="179" x="1165" y="455.1201">bool IsNumber(string text)</text><ellipse cx="1156" cy="468.0703" fill="#84BE84" rx="3" ry="3" style="stroke:#038048;stroke-width:1.0;"/><text fill="#000000" font-family="sans-serif" font-size="14" lengthAdjust="spacing" textLength="148" x="1165" y="471.417">void MainViewModel()</text><ellipse cx="1156" cy="484.3672" fill="#84BE84" rx="3" ry="3" style="stroke:#038048;stroke-width:1.0;"/><text fill="#000000" font-family="sans-serif" font-size="14" lengthAdjust="spacing" textLength="140" x="1165" y="487.7139">void ValidateResult()</text></g><!--class Regex--><g id="elem_Regex"><rect codeLine="64" fill="#F1F1F1" height="80.5938" id="Regex" rx="2.5" ry="2.5" style="stroke:#181818;stroke-width:0.5;" width="328" x="1205" y="563.16"/><ellipse cx="1342.75" cy="579.16" fill="#ADD1B2" rx="11" ry="11" style="stroke:#181818;stroke-width:1.0;"/><path d="M1345.7188,584.8006 Q1345.1406,585.0975 1344.5,585.2381 Q1343.8594,585.3944 1343.1563,585.3944 Q1340.6563,585.3944 1339.3281,583.7538 Q1338.0156,582.0975 1338.0156,578.9725 Q1338.0156,575.8475 1339.3281,574.1913 Q1340.6563,572.535 1343.1563,572.535 Q1343.8594,572.535 1344.5,572.6913 Q1345.1563,572.8475 1345.7188,573.1444 L1345.7188,575.8631 Q1345.0938,575.285 1344.5,575.0194 Q1343.9063,574.7381 1343.2813,574.7381 Q1341.9375,574.7381 1341.25,575.8163 Q1340.5625,576.8788 1340.5625,578.9725 Q1340.5625,581.0663 1341.25,582.1444 Q1341.9375,583.2069 1343.2813,583.2069 Q1343.9063,583.2069 1344.5,582.9413 Q1345.0938,582.66 1345.7188,582.0819 L1345.7188,584.8006 Z " fill="#000000"/><text fill="#000000" font-family="sans-serif" font-size="14" lengthAdjust="spacing" textLength="44" x="1363.25" y="584.0067">Regex</text><line style="stroke:#181818;stroke-width:0.5;" x1="1206" x2="1532" y1="595.16" y2="595.16"/><ellipse cx="1216" cy="608.8084" fill="none" rx="3" ry="3" style="stroke:#038048;stroke-width:1.0;"/><text fill="#000000" font-family="sans-serif" font-size="14" lengthAdjust="spacing" textLength="302" x="1225" y="612.1551">static Dictionary&lt;string, string&gt; Markdowns</text><ellipse cx="1216" cy="625.1053" fill="none" rx="3" ry="3" style="stroke:#038048;stroke-width:1.0;"/><text fill="#000000" font-family="sans-serif" font-size="14" lengthAdjust="spacing" textLength="299" x="1225" y="628.452">static Dictionary&lt;string, string&gt; Operations</text><line style="stroke:#181818;stroke-width:0.5;" x1="1206" x2="1532" y1="635.7538" y2="635.7538"/></g><!--class Window--><g id="elem_Window"><rect codeLine="69" fill="#F1F1F1" height="64.2969" id="Window" rx="2.5" ry="2.5" style="stroke:#181818;stroke-width:0.5;" width="132" x="1726" y="218.86"/><ellipse cx="1761.7" cy="234.86" fill="#ADD1B2" rx="11" ry="11" style="stroke:#181818;stroke-width:1.0;"/><path d="M1764.6688,240.5006 Q1764.0906,240.7975 1763.45,240.9381 Q1762.8094,241.0944 1762.1063,241.0944 Q1759.6063,241.0944 1758.2781,239.4538 Q1756.9656,237.7975 1756.9656,234.6725 Q1756.9656,231.5475 1758.2781,229.8913 Q1759.6063,228.235 1762.1063,228.235 Q1762.8094,228.235 1763.45,228.3913 Q1764.1063,228.5475 1764.6688,228.8444 L1764.6688,231.5631 Q1764.0438,230.985 1763.45,230.7194 Q1762.8563,230.4381 1762.2313,230.4381 Q1760.8875,230.4381 1760.2,231.5163 Q1759.5125,232.5788 1759.5125,234.6725 Q1759.5125,236.7663 1760.2,237.8444 Q1760.8875,238.9069 1762.2313,238.9069 Q1762.8563,238.9069 1763.45,238.6413 Q1764.0438,238.36 1764.6688,237.7819 L1764.6688,240.5006 Z " fill="#000000"/><text fill="#000000" font-family="sans-serif" font-size="14" lengthAdjust="spacing" textLength="54" x="1780.3" y="239.7067">Window</text><line style="stroke:#181818;stroke-width:0.5;" x1="1727" x2="1857" y1="250.86" y2="250.86"/><ellipse cx="1737" cy="264.5084" fill="none" rx="3" ry="3" style="stroke:#038048;stroke-width:1.0;"/><text fill="#000000" font-family="sans-serif" font-size="14" lengthAdjust="spacing" textLength="106" x="1746" y="267.8551">ContentControl</text><line style="stroke:#181818;stroke-width:0.5;" x1="1727" x2="1857" y1="275.1569" y2="275.1569"/></g><!--class GraphWindow--><g id="elem_GraphWindow"><rect codeLine="73" fill="#F1F1F1" height="64.2969" id="GraphWindow" rx="2.5" ry="2.5" style="stroke:#181818;stroke-width:0.5;" width="132" x="1568" y="571.31"/><ellipse cx="1584.8" cy="587.31" fill="#ADD1B2" rx="11" ry="11" style="stroke:#181818;stroke-width:1.0;"/><path d="M1587.7688,592.9506 Q1587.1906,593.2475 1586.55,593.3881 Q1585.9094,593.5444 1585.2063,593.5444 Q1582.7063,593.5444 1581.3781,591.9038 Q1580.0656,590.2475 1580.0656,587.1225 Q1580.0656,583.9975 1581.3781,582.3413 Q1582.7063,580.685 1585.2063,580.685 Q1585.9094,580.685 1586.55,580.8413 Q1587.2063,580.9975 1587.7688,581.2944 L1587.7688,584.0131 Q1587.1438,583.435 1586.55,583.1694 Q1585.9563,582.8881 1585.3313,582.8881 Q1583.9875,582.8881 1583.3,583.9663 Q1582.6125,585.0288 1582.6125,587.1225 Q1582.6125,589.2163 1583.3,590.2944 Q1583.9875,591.3569 1585.3313,591.3569 Q1585.9563,591.3569 1586.55,591.0913 Q1587.1438,590.81 1587.7688,590.2319 L1587.7688,592.9506 Z " fill="#000000"/><text fill="#000000" font-family="sans-serif" font-size="14" lengthAdjust="spacing" textLength="96" x="1599.2" y="592.1567">GraphWindow</text><line style="stroke:#181818;stroke-width:0.5;" x1="1569" x2="1699" y1="603.31" y2="603.31"/><line style="stroke:#181818;stroke-width:0.5;" x1="1569" x2="1699" y1="611.31" y2="611.31"/><ellipse cx="1579" cy="624.9584" fill="#84BE84" rx="3" ry="3" style="stroke:#038048;stroke-width:1.0;"/><text fill="#000000" font-family="sans-serif" font-size="14" lengthAdjust="spacing" textLength="106" x="1588" y="628.3051">GraphWindow()</text></g><!--class InfoWindow--><g id="elem_InfoWindow"><rect codeLine="77" fill="#F1F1F1" height="64.2969" id="InfoWindow" rx="2.5" ry="2.5" style="stroke:#181818;stroke-width:0.5;" width="115" x="1734.5" y="571.31"/><ellipse cx="1751.3" cy="587.31" fill="#ADD1B2" rx="11" ry="11" style="stroke:#181818;stroke-width:1.0;"/><path d="M1754.2688,592.9506 Q1753.6906,593.2475 1753.05,593.3881 Q1752.4094,593.5444 1751.7063,593.5444 Q1749.2063,593.5444 1747.8781,591.9038 Q1746.5656,590.2475 1746.5656,587.1225 Q1746.5656,583.9975 1747.8781,582.3413 Q1749.2063,580.685 1751.7063,580.685 Q1752.4094,580.685 1753.05,580.8413 Q1753.7063,580.9975 1754.2688,581.2944 L1754.2688,584.0131 Q1753.6438,583.435 1753.05,583.1694 Q1752.4563,582.8881 1751.8313,582.8881 Q1750.4875,582.8881 1749.8,583.9663 Q1749.1125,585.0288 1749.1125,587.1225 Q1749.1125,589.2163 1749.8,590.2944 Q1750.4875,591.3569 1751.8313,591.3569 Q1752.4563,591.3569 1753.05,591.0913 Q1753.6438,590.81 1754.2688,590.2319 L1754.2688,592.9506 Z " fill="#000000"/><text fill="#000000" font-family="sans-serif" font-size="14" lengthAdjust="spacing" textLength="79" x="1765.7" y="592.1567">InfoWindow</text><line style="stroke:#181818;stroke-width:0.5;" x1="1735.5" x2="1848.5" y1="603.31" y2="603.31"/><line style="stroke:#181818;stroke-width:0.5;" x1="1735.5" x2="1848.5" y1="611.31" y2="611.31"/><ellipse cx="1745.5" cy="624.9584" fill="#84BE84" rx="3" ry="3" style="stroke:#038048;stroke-width:1.0;"/><text fill="#000000" font-family="sans-serif" font-size="14" lengthAdjust="spacing" textLength="89" x="1754.5" y="628.3051">InfoWindow()</text></g><!--class MainWindow--><g id="elem_MainWindow"><rect codeLine="81" fill="#F1F1F1" height="96.8906" id="MainWindow" rx="2.5" ry="2.5" style="stroke:#181818;stroke-width:0.5;" width="386" x="1884" y="555.02"/><ellipse cx="2029.75" cy="571.02" fill="#ADD1B2" rx="11" ry="11" style="stroke:#181818;stroke-width:1.0;"/><path d="M2032.7188,576.6606 Q2032.1406,576.9575 2031.5,577.0981 Q2030.8594,577.2544 2030.1563,577.2544 Q2027.6563,577.2544 2026.3281,575.6138 Q2025.0156,573.9575 2025.0156,570.8325 Q2025.0156,567.7075 2026.3281,566.0513 Q2027.6563,564.395 2030.1563,564.395 Q2030.8594,564.395 2031.5,564.5513 Q2032.1563,564.7075 2032.7188,565.0044 L2032.7188,567.7231 Q2032.0938,567.145 2031.5,566.8794 Q2030.9063,566.5981 2030.2813,566.5981 Q2028.9375,566.5981 2028.25,567.6763 Q2027.5625,568.7388 2027.5625,570.8325 Q2027.5625,572.9263 2028.25,574.0044 Q2028.9375,575.0669 2030.2813,575.0669 Q2030.9063,575.0669 2031.5,574.8013 Q2032.0938,574.52 2032.7188,573.9419 L2032.7188,576.6606 Z " fill="#000000"/><text fill="#000000" font-family="sans-serif" font-size="14" lengthAdjust="spacing" textLength="86" x="2050.25" y="575.8667">MainWindow</text><line style="stroke:#181818;stroke-width:0.5;" x1="1885" x2="2269" y1="587.02" y2="587.02"/><line style="stroke:#181818;stroke-width:0.5;" x1="1885" x2="2269" y1="595.02" y2="595.02"/><ellipse cx="1895" cy="608.6684" fill="#84BE84" rx="3" ry="3" style="stroke:#038048;stroke-width:1.0;"/><text fill="#000000" font-family="sans-serif" font-size="14" lengthAdjust="spacing" textLength="96" x="1904" y="612.0151">MainWindow()</text><ellipse cx="1895" cy="624.9653" fill="#84BE84" rx="3" ry="3" style="stroke:#038048;stroke-width:1.0;"/><text fill="#000000" font-family="sans-serif" font-size="14" lengthAdjust="spacing" textLength="360" x="1904" y="628.312">void ShowGraph(object sender, RoutedEventArgs e)</text><ellipse cx="1895" cy="641.2622" fill="#84BE84" rx="3" ry="3" style="stroke:#038048;stroke-width:1.0;"/><text fill="#000000" font-family="sans-serif" font-size="14" lengthAdjust="spacing" textLength="343" x="1904" y="644.6089">void ShowInfo(object sender, RoutedEventArgs e)</text></g><!--class ICommand--><g id="elem_ICommand"><rect codeLine="87" fill="#F1F1F1" height="48" id="ICommand" rx="2.5" ry="2.5" style="stroke:#181818;stroke-width:0.5;" width="106" x="2331" y="227.01"/><ellipse cx="2346" cy="243.01" fill="#B4A7E5" rx="11" ry="11" style="stroke:#181818;stroke-width:1.0;"/><path d="M2341.9219,238.7756 L2341.9219,236.6194 L2349.3125,236.6194 L2349.3125,238.7756 L2346.8438,238.7756 L2346.8438,246.8538 L2349.3125,246.8538 L2349.3125,249.01 L2341.9219,249.01 L2341.9219,246.8538 L2344.3906,246.8538 L2344.3906,238.7756 L2341.9219,238.7756 Z " fill="#000000"/><text fill="#000000" font-family="sans-serif" font-size="14" font-style="italic" lengthAdjust="spacing" textLength="74" x="2360" y="247.8567">ICommand</text><line style="stroke:#181818;stroke-width:0.5;" x1="2332" x2="2436" y1="259.01" y2="259.01"/><line style="stroke:#181818;stroke-width:0.5;" x1="2332" x2="2436" y1="267.01" y2="267.01"/></g><!--class ObservableObject--><g id="elem_ObservableObject"><rect codeLine="90" fill="#F1F1F1" height="48" id="ObservableObject" rx="2.5" ry="2.5" style="stroke:#181818;stroke-width:0.5;" width="155" x="2472.5" y="227.01"/><ellipse cx="2487.5" cy="243.01" fill="#A9DCDF" rx="11" ry="11" style="stroke:#181818;stroke-width:1.0;"/><path d="M2487.6094,238.3538 L2486.4531,243.4319 L2488.7813,243.4319 L2487.6094,238.3538 Z M2486.125,236.1194 L2489.1094,236.1194 L2492.4688,248.51 L2490.0156,248.51 L2489.25,245.4475 L2485.9688,245.4475 L2485.2188,248.51 L2482.7813,248.51 L2486.125,236.1194 Z " fill="#000000"/><text fill="#000000" font-family="sans-serif" font-size="14" font-style="italic" lengthAdjust="spacing" textLength="123" x="2501.5" y="247.8567">ObservableObject</text><line style="stroke:#181818;stroke-width:0.5;" x1="2473.5" x2="2626.5" y1="259.01" y2="259.01"/><line style="stroke:#181818;stroke-width:0.5;" x1="2473.5" x2="2626.5" y1="267.01" y2="267.01"/></g><!--class GeneratedInternalTypeHelper--><g id="elem_GeneratedInternalTypeHelper"><rect codeLine="93" fill="#F1F1F1" height="48" id="GeneratedInternalTypeHelper" rx="2.5" ry="2.5" style="stroke:#181818;stroke-width:0.5;" width="236" x="2663" y="227.01"/><ellipse cx="2678" cy="243.01" fill="#ADD1B2" rx="11" ry="11" style="stroke:#181818;stroke-width:1.0;"/><path d="M2680.9688,248.6506 Q2680.3906,248.9475 2679.75,249.0881 Q2679.1094,249.2444 2678.4063,249.2444 Q2675.9063,249.2444 2674.5781,247.6038 Q2673.2656,245.9475 2673.2656,242.8225 Q2673.2656,239.6975 2674.5781,238.0413 Q2675.9063,236.385 2678.4063,236.385 Q2679.1094,236.385 2679.75,236.5413 Q2680.4063,236.6975 2680.9688,236.9944 L2680.9688,239.7131 Q2680.3438,239.135 2679.75,238.8694 Q2679.1563,238.5881 2678.5313,238.5881 Q2677.1875,238.5881 2676.5,239.6663 Q2675.8125,240.7288 2675.8125,242.8225 Q2675.8125,244.9163 2676.5,245.9944 Q2677.1875,247.0569 2678.5313,247.0569 Q2679.1563,247.0569 2679.75,246.7913 Q2680.3438,246.51 2680.9688,245.9319 L2680.9688,248.6506 Z " fill="#000000"/><text fill="#000000" font-family="sans-serif" font-size="14" lengthAdjust="spacing" textLength="204" x="2692" y="247.8567">GeneratedInternalTypeHelper</text><line style="stroke:#181818;stroke-width:0.5;" x1="2664" x2="2898" y1="259.01" y2="259.01"/><line style="stroke:#181818;stroke-width:0.5;" x1="2664" x2="2898" y1="267.01" y2="267.01"/></g><!--class IQueryAmbient--><g id="elem_IQueryAmbient"><rect codeLine="96" fill="#F1F1F1" height="48" id="IQueryAmbient" rx="2.5" ry="2.5" style="stroke:#181818;stroke-width:0.5;" width="133" x="13.5" y="752.65"/><ellipse cx="28.5" cy="768.65" fill="#B4A7E5" rx="11" ry="11" style="stroke:#181818;stroke-width:1.0;"/><path d="M24.4219,764.4156 L24.4219,762.2594 L31.8125,762.2594 L31.8125,764.4156 L29.3438,764.4156 L29.3438,772.4938 L31.8125,772.4938 L31.8125,774.65 L24.4219,774.65 L24.4219,772.4938 L26.8906,772.4938 L26.8906,764.4156 L24.4219,764.4156 Z " fill="#000000"/><text fill="#000000" font-family="sans-serif" font-size="14" font-style="italic" lengthAdjust="spacing" textLength="101" x="42.5" y="773.4967">IQueryAmbient</text><line style="stroke:#181818;stroke-width:0.5;" x1="14.5" x2="145.5" y1="784.65" y2="784.65"/><line style="stroke:#181818;stroke-width:0.5;" x1="14.5" x2="145.5" y1="792.65" y2="792.65"/></g><!--class ResolveCommand--><g id="elem_ResolveCommand"><rect fill="#F1F1F1" height="48" id="ResolveCommand" rx="2.5" ry="2.5" style="stroke:#181818;stroke-width:0.5;" width="158" x="2305" y="579.46"/><ellipse cx="2320" cy="595.46" fill="#ADD1B2" rx="11" ry="11" style="stroke:#181818;stroke-width:1.0;"/><path d="M2322.9688,601.1006 Q2322.3906,601.3975 2321.75,601.5381 Q2321.1094,601.6944 2320.4063,601.6944 Q2317.9063,601.6944 2316.5781,600.0537 Q2315.2656,598.3975 2315.2656,595.2725 Q2315.2656,592.1475 2316.5781,590.4912 Q2317.9063,588.835 2320.4063,588.835 Q2321.1094,588.835 2321.75,588.9912 Q2322.4063,589.1475 2322.9688,589.4444 L2322.9688,592.1631 Q2322.3438,591.585 2321.75,591.3194 Q2321.1563,591.0381 2320.5313,591.0381 Q2319.1875,591.0381 2318.5,592.1162 Q2317.8125,593.1787 2317.8125,595.2725 Q2317.8125,597.3662 2318.5,598.4444 Q2319.1875,599.5069 2320.5313,599.5069 Q2321.1563,599.5069 2321.75,599.2412 Q2322.3438,598.96 2322.9688,598.3819 L2322.9688,601.1006 Z " fill="#000000"/><text fill="#000000" font-family="sans-serif" font-size="14" lengthAdjust="spacing" textLength="126" x="2334" y="600.3067">ResolveCommand</text><line style="stroke:#181818;stroke-width:0.5;" x1="2306" x2="2462" y1="611.46" y2="611.46"/><line style="stroke:#181818;stroke-width:0.5;" x1="2306" x2="2462" y1="619.46" y2="619.46"/></g><!--link App to Application--><g id="link_App_Application"><path codeLine="101" d="M80,275.27 C80,336.35 80,495.31 80,564.86 " fill="none" id="App-to-Application" style="stroke:#181818;stroke-width:1.0;"/><polygon fill="#181818" points="80,570.86,84,561.86,80,565.86,76,561.86,80,570.86" style="stroke:#181818;stroke-width:1.0;"/></g><!--link Application to IQueryAmbient--><g id="link_Application_IQueryAmbient"><path codeLine="102" d="M80,635.86 C80,669.45 80,715.96 80,746.15 " fill="none" id="Application-to-IQueryAmbient" style="stroke:#181818;stroke-width:1.0;"/><polygon fill="#181818" points="80,752.15,84,743.15,80,747.15,76,743.15,80,752.15" style="stroke:#181818;stroke-width:1.0;"/></g><!--reverse link Exception to FunctionException--><g id="link_Exception_FunctionException"><path codeLine="103" d="M666.3239,298.3303 C707.9639,359.9003 790.46,481.89 839.72,554.73 " fill="none" id="Exception-backto-FunctionException" style="stroke:#181818;stroke-width:1.0;"/><polygon fill="none" points="656.24,283.42,661.3538,301.6915,671.2939,294.969,656.24,283.42" style="stroke:#181818;stroke-width:1.0;"/></g><!--reverse link Exception to NanException--><g id="link_Exception_NanException"><path codeLine="104" d="M603.7944,298.3494 C562.3244,359.9194 480.19,481.89 431.14,554.73 " fill="none" id="Exception-backto-NanException" style="stroke:#181818;stroke-width:1.0;"/><polygon fill="none" points="613.85,283.42,598.818,294.9975,608.7709,301.7012,613.85,283.42" style="stroke:#181818;stroke-width:1.0;"/></g><!--link FunctionException to IntegralSolver--><g id="link_FunctionException_IntegralSolver"><path codeLine="105" d="M911,652.15 C926.05,670.55 939.6917,687.2353 955.8017,706.9353 " fill="none" id="FunctionException-to-IntegralSolver" style="stroke:#181818;stroke-width:1.0;"/><polygon fill="#181818" points="959.6,711.58,956.9991,702.0808,956.4348,707.7094,950.8061,707.1451,959.6,711.58" style="stroke:#181818;stroke-width:1.0;"/></g><!--link MainViewModel to Regex--><g id="link_MainViewModel_Regex"><path codeLine="106" d="M1356.8,495.41 C1357.53,521.1 1358.1744,538.5031 1359.7844,556.8131 " fill="none" id="MainViewModel-to-Regex" style="stroke:#181818;stroke-width:1.0;"/><polygon fill="#181818" points="1360.31,562.79,1363.5063,553.4742,1359.872,557.8092,1355.537,554.175,1360.31,562.79" style="stroke:#181818;stroke-width:1.0;"/></g><!--link Regex to MainViewModel--><g id="link_Regex_MainViewModel"><path codeLine="113" d="M1377.69,562.79 C1379.3,544.48 1380.2996,527.0976 1381.0296,501.4076 " fill="none" id="Regex-to-MainViewModel" style="stroke:#181818;stroke-width:1.0;"/><polygon fill="#181818" points="1381.2,495.41,1376.946,504.2928,1381.058,500.408,1384.9427,504.52,1381.2,495.41" style="stroke:#181818;stroke-width:1.0;"/></g><!--link MainViewModel to IntegralSolver--><g id="link_MainViewModel_IntegralSolver"><path codeLine="107" d="M1223.31,495.42 C1189.74,547.96 1153.23,602.53 1117,651.91 C1102.33,671.9 1089.2283,688.2004 1073.2483,706.9804 " fill="none" id="MainViewModel-to-IntegralSolver" style="stroke:#181818;stroke-width:1.0;"/><polygon fill="#181818" points="1069.36,711.55,1078.2388,707.2878,1072.6002,707.742,1072.146,702.1034,1069.36,711.55" style="stroke:#181818;stroke-width:1.0;"/></g><!--link MainViewModel to MainWindow--><g id="link_MainViewModel_MainWindow"><path codeLine="108" d="M1593.34,428.08 C1630.7,452.73 1670.01,476.07 1709,495.02 C1763.63,521.56 1820.288,541.1918 1878.038,557.5818 " fill="none" id="MainViewModel-to-MainWindow" style="stroke:#181818;stroke-width:1.0;"/><polygon fill="#181818" points="1883.81,559.22,1876.244,552.9147,1879,557.8549,1874.0598,560.6108,1883.81,559.22" style="stroke:#181818;stroke-width:1.0;"/></g><!--link MainViewModel to InfoWindow--><g id="link_MainViewModel_InfoWindow"><path codeLine="109" d="M1593.2,437.75 C1655.55,489.41 1711.8098,536.022 1749.4298,567.192 " fill="none" id="MainViewModel-to-InfoWindow" style="stroke:#181818;stroke-width:1.0;"/><polygon fill="#181818" points="1754.05,571.02,1749.6718,562.1978,1750.1998,567.83,1744.5677,568.3581,1754.05,571.02" style="stroke:#181818;stroke-width:1.0;"/></g><!--link MainViewModel to GraphWindow--><g id="link_MainViewModel_GraphWindow"><path codeLine="110" d="M1553.05,495.41 C1575.48,525.08 1591.9617,546.8638 1606.5217,566.1238 " fill="none" id="MainViewModel-to-GraphWindow" style="stroke:#181818;stroke-width:1.0;"/><polygon fill="#181818" points="1610.14,570.91,1607.9034,561.3185,1607.1248,566.9215,1601.5218,566.1428,1610.14,570.91" style="stroke:#181818;stroke-width:1.0;"/></g><!--link MainViewModel to NanException--><g id="link_MainViewModel_NanException"><path codeLine="111" d="M1144.54,334.55 C1015.5,381.84 850.26,442.13 703,495.02 C648.21,514.69 593.4282,534.1139 540.9582,552.6239 " fill="none" id="MainViewModel-to-NanException" style="stroke:#181818;stroke-width:1.0;"/><polygon fill="#181818" points="535.3,554.62,545.1181,555.398,540.0152,552.9566,542.4566,547.8537,535.3,554.62" style="stroke:#181818;stroke-width:1.0;"/></g><!--link MainViewModel to FunctionException--><g id="link_MainViewModel_FunctionException"><path codeLine="112" d="M1144.85,410.06 C1070.45,462.52 998.0133,513.6021 944.7533,551.1621 " fill="none" id="MainViewModel-to-FunctionException" style="stroke:#181818;stroke-width:1.0;"/><polygon fill="#181818" points="939.85,554.62,949.5103,552.702,943.9361,551.7384,944.8997,546.1642,939.85,554.62" style="stroke:#181818;stroke-width:1.0;"/></g><!--reverse link Window to MainWindow--><g id="link_Window_MainWindow"><path codeLine="114" d="M1828.8981,297.384 C1878.9781,358.954 1978.95,481.89 2038.18,554.73 " fill="none" id="Window-backto-MainWindow" style="stroke:#181818;stroke-width:1.0;"/><polygon fill="none" points="1817.54,283.42,1824.2434,301.17,1833.5528,293.598,1817.54,283.42" style="stroke:#181818;stroke-width:1.0;"/></g><!--reverse link Window to GraphWindow--><g id="link_Window_GraphWindow"><path codeLine="115" d="M1770.4408,299.8289 C1740.4408,366.3589 1678.2,504.42 1648.19,571 " fill="none" id="Window-backto-GraphWindow" style="stroke:#181818;stroke-width:1.0;"/><polygon fill="none" points="1777.84,283.42,1764.9712,297.3625,1775.9105,302.2953,1777.84,283.42" style="stroke:#181818;stroke-width:1.0;"/></g><!--reverse link Window to InfoWindow--><g id="link_Window_InfoWindow"><path codeLine="116" d="M1792,301.42 C1792,367.95 1792,504.42 1792,571 " fill="none" id="Window-backto-InfoWindow" style="stroke:#181818;stroke-width:1.0;"/><polygon fill="none" points="1792,283.42,1786,301.42,1798,301.42,1792,283.42" style="stroke:#181818;stroke-width:1.0;"/></g><!--reverse link ICommand to ResolveCommand--><g id="link_ICommand_ResolveCommand"><path codeLine="117" d="M2384,293.27 C2384,356.87 2384,515.12 2384,578.97 " fill="none" id="ICommand-backto-ResolveCommand" style="stroke:#181818;stroke-width:1.0;"/><polygon fill="none" points="2384,275.27,2378,293.27,2390,293.27,2384,275.27" style="stroke:#181818;stroke-width:1.0;"/></g><!--SRC=[hLRDRXit4BxlK_0M6R7G1uWXmB-93evTAqYF1hKxafXmoGN9jQIa0PeMFUSD0lGD0iDkdBP9Ne5wemntLxlaQkle4CCIn9blPZuEXyDvGEnx-tNrcxsrD_Zv5p-VxPsz9VOVN7nOlLszjL_iDR5t-B_wazYlk7IeJp_P_-pjwdTStZX45CMSQatsiuoyZjvuIyvYQfWKA2Ruzv0SCPrH4yz0dOrVG6mQzF4YXip33aUW6ENi5HrpQ60dkOWTgWr_kAdfxVolHXl5n9Iae3MTmhQuNOya4m9KlTnf23wb7TnyOKqh47OpkWUo5PcXC31Lb8yalm9Lqz46JoKcEPVexuXD9YpEkLc6MYOCELSGCuq-ArNXvs1vWIT7nPI3xXqlCeM478i9fc-N93B70oDvbe4waBb8QX6NyrfKxOMggTu9VOzOccdSxGzt_4pH35wnFFqXhkiKdr8cdZEOdye4U9NX_XfxEQbAgXAxd5xYWMIpSuc_TIMkWbsMqLek6WgLmgD_cL8pQzOjowfIkgM7aalbqyg2isxmUYRdwpfgyIqJri8tMQpoVpRMeAxSDSQO78fyx1MrDsYAZu4chyaKp2EYtTUR-unFf4fpJW-bC4ho0JahwhxRmJcNfZoRvjVMWSez3SW5QEJO7I0aGqRWZ24P6aWxyLUI9UIGykfIwheVb8ePn2-78ijDBQyIYm4GRjPDwfIgbucSrst1LThtBCoi2rt6BR55v6493VH7YiuVky8DnSSfCuSo7Si3kGWrGy5CqRyXD1jBJD9GFytJCQWr7GCB4rW7jofq_1oT9jH0UIOzxofUm1GMxIPtn8hDKxMiJdDzaGTadKAzjSKPbdRneEacwYzCe9CwhAi34AOgXmPMPA65zMIze6jFP0lPY7gjtjC2Dg8mQoEynUL1oEBXnPeK2QXTSY5phDRZA-IyZvsDm8QPYxs55RB2FW9gGcCWGooAb8gad0Ve61D8qRoatLorSWZmXuR785oAyVuuNuBoPyiCdW3FYkShZF5p3cgvduuPiYYL3uZzorwltjcFRcZ18SN-RMzMV_WJpGSKtqMHcrNw_O4_f4J-mE9qGO2eUMxtVkttDuU5Di1_kwFDiQK843pFKVYKE41HqHtoxnesPT1flIwc3gLNantQO5ERwisab7ToJQb6HrNP5fdooFfYdualz-ZNPLOei2EuV5IoRm00]--></g></svg>